<svg width="1616" height="341" viewBox="0 0 1616 341" fill="none" xmlns="http://www.w3.org/2000/svg">
<path d="M107.02 263V242.016L158.766 186.535C166.236 177.966 171.546 170.751 174.696 164.892C177.845 158.959 179.42 153.466 179.42 148.413C179.42 141.674 177.589 136.181 173.927 131.933C170.338 127.612 165.211 125.451 158.546 125.451C151.148 125.451 145.509 127.978 141.627 133.032C137.818 138.012 135.914 144.677 135.914 153.027H104.713L104.493 152.368C104.127 137.939 108.851 125.744 118.666 115.783C128.553 105.749 141.847 100.732 158.546 100.732C175.025 100.732 187.989 105.017 197.438 113.586C206.886 122.155 211.61 133.581 211.61 147.863C211.61 157.531 208.937 166.467 203.59 174.67C198.316 182.873 189.527 193.566 177.223 206.75L148.768 237.841L148.988 238.391H190.516L191.834 222.57H216.224V263H107.02ZM342.237 200.708C342.237 221.875 337.367 237.951 327.625 248.938C317.958 259.851 304.847 265.307 288.294 265.307C271.595 265.307 258.375 259.851 248.634 248.938C238.893 237.951 234.022 221.875 234.022 200.708V165.441C234.022 144.348 238.856 128.308 248.524 117.321C258.265 106.262 271.449 100.732 288.075 100.732C304.627 100.732 317.774 106.262 327.516 117.321C337.33 128.308 342.237 144.348 342.237 165.441V200.708ZM310.267 162.146C310.267 149.475 308.363 140.209 304.554 134.35C300.746 128.417 295.252 125.451 288.075 125.451C280.824 125.451 275.331 128.381 271.595 134.24C267.86 140.1 265.992 149.401 265.992 162.146V203.784C265.992 216.674 267.86 226.049 271.595 231.909C275.404 237.768 280.97 240.698 288.294 240.698C295.472 240.698 300.929 237.768 304.664 231.909C308.399 226.049 310.267 216.674 310.267 203.784V162.146ZM359.046 243.774L386.073 240.478V132.153H358.717V113.806L418.043 103.039V240.478L445.069 243.774V263H359.046V243.774ZM569.874 127.758C552.735 147.827 541.017 166.54 534.718 183.898C528.492 201.257 524.024 222.204 521.314 246.74L519.776 263H487.696L489.234 246.74C491.725 223.229 497.071 201.66 505.274 182.031C513.478 162.329 524.72 144.238 539.002 127.758H482.643L481.434 143.579H456.825V103.039H569.874V127.758ZM704.676 206.97H642.713V182.25H704.676V206.97ZM781.141 263V242.016L832.887 186.535C840.357 177.966 845.667 170.751 848.817 164.892C851.966 158.959 853.541 153.466 853.541 148.413C853.541 141.674 851.71 136.181 848.048 131.933C844.459 127.612 839.332 125.451 832.667 125.451C825.27 125.451 819.63 127.978 815.748 133.032C811.939 138.012 810.035 144.677 810.035 153.027H778.834L778.614 152.368C778.248 137.939 782.972 125.744 792.787 115.783C802.674 105.749 815.968 100.732 832.667 100.732C849.146 100.732 862.11 105.017 871.559 113.586C881.007 122.155 885.731 133.581 885.731 147.863C885.731 157.531 883.058 166.467 877.711 174.67C872.438 182.873 863.648 193.566 851.344 206.75L822.889 237.841L823.109 238.391H864.637L865.956 222.57H890.345V263H781.141ZM1016.36 200.708C1016.36 221.875 1011.49 237.951 1001.75 248.938C992.079 259.851 978.968 265.307 962.416 265.307C945.716 265.307 932.496 259.851 922.755 248.938C913.014 237.951 908.143 221.875 908.143 200.708V165.441C908.143 144.348 912.977 128.308 922.645 117.321C932.386 106.262 945.57 100.732 962.196 100.732C978.749 100.732 991.896 106.262 1001.64 117.321C1011.45 128.308 1016.36 144.348 1016.36 165.441V200.708ZM984.388 162.146C984.388 149.475 982.484 140.209 978.675 134.35C974.867 128.417 969.374 125.451 962.196 125.451C954.945 125.451 949.452 128.381 945.716 134.24C941.981 140.1 940.113 149.401 940.113 162.146V203.784C940.113 216.674 941.981 226.049 945.716 231.909C949.525 237.768 955.091 240.698 962.416 240.698C969.593 240.698 975.05 237.768 978.785 231.909C982.521 226.049 984.388 216.674 984.388 203.784V162.146ZM1033.17 243.774L1060.19 240.478V132.153H1032.84V113.806L1092.16 103.039V240.478L1119.19 243.774V263H1033.17V243.774ZM1238.28 145.446C1238.28 153.43 1236.16 160.498 1231.91 166.65C1227.66 172.802 1221.84 177.6 1214.44 181.042C1222.94 184.631 1229.64 189.758 1234.55 196.423C1239.45 203.088 1241.91 210.705 1241.91 219.274C1241.91 234.069 1236.89 245.458 1226.86 253.442C1216.82 261.352 1203.71 265.307 1187.53 265.307C1171.27 265.307 1158.08 261.352 1147.97 253.442C1137.94 245.458 1132.92 234.069 1132.92 219.274C1132.92 210.632 1135.34 203.015 1140.17 196.423C1145.08 189.758 1151.78 184.631 1160.28 181.042C1152.81 177.6 1146.99 172.802 1142.81 166.65C1138.64 160.498 1136.55 153.43 1136.55 145.446C1136.55 131.237 1141.2 120.251 1150.5 112.487C1159.8 104.65 1172.07 100.732 1187.31 100.732C1202.54 100.732 1214.84 104.65 1224.22 112.487C1233.59 120.251 1238.28 131.237 1238.28 145.446ZM1209.94 217.077C1209.94 209.899 1207.81 204.15 1203.57 199.829C1199.39 195.507 1193.97 193.347 1187.31 193.347C1180.64 193.347 1175.26 195.507 1171.16 199.829C1167.05 204.15 1165 209.899 1165 217.077C1165 224.401 1167.05 230.188 1171.16 234.436C1175.26 238.61 1180.71 240.698 1187.53 240.698C1194.19 240.698 1199.57 238.574 1203.68 234.326C1207.85 230.078 1209.94 224.328 1209.94 217.077ZM1206.2 146.875C1206.2 140.429 1204.48 135.266 1201.04 131.384C1197.67 127.429 1193.09 125.451 1187.31 125.451C1181.45 125.451 1176.87 127.392 1173.57 131.274C1170.35 135.083 1168.74 140.283 1168.74 146.875C1168.74 153.54 1170.39 158.85 1173.68 162.805C1176.98 166.687 1181.59 168.627 1187.53 168.627C1193.31 168.627 1197.85 166.687 1201.15 162.805C1204.52 158.85 1206.2 153.54 1206.2 146.875Z" fill="black"/>
<rect y="303" width="1203" height="38" fill="#7BC6F8"/>
<path d="M1195 19L1563 172.716L1195 322" stroke="#7BC6F8" stroke-width="40"/>
</svg>
