<svg class="animated" id="freepik_stories-events" xmlns="http://www.w3.org/2000/svg" viewBox="0 0 500 500" version="1.1" xmlns:xlink="http://www.w3.org/1999/xlink" xmlns:svgjs="http://svgjs.com/svgjs"><g id="freepik--Floor--inject-132" class="animable animator-hidden" style="transform-origin: 249.53px 330.11px;"><ellipse id="freepik--floor--inject-132" cx="249.53" cy="330.11" rx="239.59" ry="138.33" style="fill: rgb(245, 245, 245); transform-origin: 249.53px 330.11px;" class="animable"></ellipse></g><g id="freepik--Shadows--inject-132" class="animable" style="transform-origin: 241.375px 313.449px;"><path id="freepik--Shadow--inject-132" d="M111.73,335.7,37.42,292.79c-1.91-1.1-1.91-2.89,0-4l191.3-110.44a7.63,7.63,0,0,1,6.93,0L310,221.25c1.91,1.11,1.91,2.9,0,4L118.66,335.7A7.69,7.69,0,0,1,111.73,335.7Z" style="fill: rgb(224, 224, 224); transform-origin: 173.71px 257.021px;" class="animable"></path><path id="freepik--shadow--inject-132" d="M346.49,213.92l-22.78-13.15a2.56,2.56,0,0,0-2.32,0l-22.78,13.15a.71.71,0,0,0,0,1.34l22.78,13.15a2.56,2.56,0,0,0,2.32,0l22.78-13.15A.71.71,0,0,0,346.49,213.92Z" style="fill: rgb(224, 224, 224); transform-origin: 322.55px 214.59px;" class="animable"></path><ellipse id="freepik--shadow--inject-132" cx="99.86" cy="360.54" rx="19.83" ry="11.45" style="fill: rgb(224, 224, 224); transform-origin: 99.86px 360.54px;" class="animable"></ellipse><ellipse id="freepik--shadow--inject-132" cx="209.76" cy="428.42" rx="36.3" ry="20.96" style="fill: rgb(224, 224, 224); transform-origin: 209.76px 428.42px;" class="animable"></ellipse><ellipse id="freepik--shadow--inject-132" cx="58.55" cy="350.32" rx="29.94" ry="17.29" style="fill: rgb(224, 224, 224); transform-origin: 58.55px 350.32px;" class="animable"></ellipse><path id="freepik--shadow--inject-132" d="M454.14,324.12,381.5,282.07a3.8,3.8,0,0,0-2.71-.56l-.68.39a1.62,1.62,0,0,0,.76,1.83l24.71,14.41L378.93,312.8l-25.3-14.74c-1.11-.64-2.27-1.21-3.37-.57h0c-1.1.64-.83,1.18.27,1.82l71.1,42,28.82-16.5Z" style="fill: rgb(224, 224, 224); transform-origin: 401.849px 311.383px;" class="animable"></path></g><g id="freepik--Ballons--inject-132" class="animable animator-active" style="transform-origin: 323.771px 150.662px;"><g id="freepik--ballons--inject-132" class="animable" style="transform-origin: 323.771px 150.662px;"><polygon points="323.5 224.54 303.68 213.08 303.68 205.04 303.26 204.8 303.26 198.96 323.5 210.65 323.5 224.54" style="fill: #00A5FF; transform-origin: 313.38px 211.75px;" id="ele95d0fe0qos" class="animable"></polygon><g id="el4l5rlso7nlu"><polygon points="323.5 224.54 303.68 213.08 303.68 205.04 303.26 204.8 303.26 198.96 323.5 210.65 323.5 224.54" style="opacity: 0.1; transform-origin: 313.38px 211.75px;" class="animable" id="eluuxyqcel6rn"></polygon></g><g id="elmd5vi12o5w"><polygon points="323.5 216.49 315.91 212.11 303.68 205.04 303.68 205.88 323.5 217.33 323.5 216.49" style="opacity: 0.15; transform-origin: 313.59px 211.185px;" class="animable" id="eln7f4jblr5wm"></polygon></g><polygon points="323.5 224.54 343.21 213.16 343.21 205.1 343.74 204.8 343.74 198.96 323.5 210.65 323.5 224.54" style="fill: #00A5FF; transform-origin: 333.62px 211.75px;" id="eltl8t6n0f46" class="animable"></polygon><g id="elmiz7exp6ei"><polygon points="343.22 205.1 323.5 216.49 323.5 217.33 343.22 205.95 343.22 205.1" style="opacity: 0.1; transform-origin: 333.36px 211.215px;" class="animable" id="elgi8x1chuy7l"></polygon></g><polygon points="343.74 198.96 323.5 187.27 303.26 198.96 323.5 210.65 343.74 198.96" style="fill: #00A5FF; transform-origin: 323.5px 198.96px;" id="elgu53thuhmtr" class="animable"></polygon><g id="elukuo5p53dv"><polygon points="343.74 198.96 323.5 187.27 303.26 198.96 323.5 210.65 343.74 198.96" style="fill: rgb(255, 255, 255); opacity: 0.4; transform-origin: 323.5px 198.96px;" class="animable" id="eljlfi7wcd4oe"></polygon></g><path d="M333.62,219.19a.51.51,0,0,1-.5-.5V205.08l-20-11.54a.51.51,0,0,1-.18-.69.49.49,0,0,1,.68-.18l20.24,11.69a.48.48,0,0,1,.25.43v13.9A.5.5,0,0,1,333.62,219.19Z" style="fill: rgb(69, 90, 100); transform-origin: 323.491px 205.895px;" id="elvp5eba9bne" class="animable"></path><path d="M313.21,219.18a.5.5,0,0,1-.5-.5V204.79a.48.48,0,0,1,.25-.43l20.24-11.69a.49.49,0,0,1,.68.18.51.51,0,0,1-.18.69l-20,11.54v13.6A.5.5,0,0,1,313.21,219.18Z" style="fill: rgb(69, 90, 100); transform-origin: 323.329px 205.89px;" id="ell1uj3qf4z9" class="animable"></path><g id="freepik--ballons--inject-132" class="animable" style="transform-origin: 323.771px 138.038px;"><path d="M323.33,199.29h0a.5.5,0,0,1-.49-.43l-10.13-68.12a.49.49,0,0,1,.42-.57.51.51,0,0,1,.57.42l9.65,64.94,8-49.62a.51.51,0,0,1,.58-.41.5.5,0,0,1,.41.57l-8.57,52.8A.5.5,0,0,1,323.33,199.29Z" style="fill: rgb(69, 90, 100); transform-origin: 322.524px 164.728px;" id="eln6kz3fy2i2" class="animable"></path><path d="M323.33,199.29h0a.5.5,0,0,1-.46-.54l6.91-91.87a.51.51,0,0,1,.54-.47.5.5,0,0,1,.46.54l-6.91,91.88A.5.5,0,0,1,323.33,199.29Z" style="fill: rgb(69, 90, 100); transform-origin: 326.825px 152.85px;" id="ela715lh1frzg" class="animable"></path><path d="M315.67,132.64h0a6.85,6.85,0,0,0-2.6-3,6.49,6.49,0,0,0-1.57,3.57h0a1,1,0,0,0,.72.77,3.26,3.26,0,0,0,2.95-.38,1.05,1.05,0,0,0,.5-.94Z" style="fill: #00A5FF; transform-origin: 313.585px 131.906px;" id="el4oo5pm3246" class="animable"></path><g id="elr7w3o0jmdfm"><path d="M315.67,132.64h0a6.85,6.85,0,0,0-2.6-3,6.49,6.49,0,0,0-1.57,3.57h0a1,1,0,0,0,.72.77,3.26,3.26,0,0,0,2.95-.38,1.05,1.05,0,0,0,.5-.94Z" style="opacity: 0.1; transform-origin: 313.585px 131.906px;" class="animable" id="elhhu45goda6k"></path></g><g id="el2nfhok8g81a"><path d="M315.67,132.64h0a6.85,6.85,0,0,0-2.6-3,6.49,6.49,0,0,0-1.57,3.57h0a1,1,0,0,0,.72.77,3.26,3.26,0,0,0,2.95-.38,1.05,1.05,0,0,0,.5-.94Z" style="opacity: 0.2; transform-origin: 313.585px 131.906px;" class="animable" id="ell9bzdth8yp"></path></g><path d="M323.21,112.16c.89,6.76-3.29,16-10,18.5-7.22-1-13.56-8.53-14.44-15.29s2.63-13.63,10.51-14.66S322.32,105.41,323.21,112.16Z" style="fill: #00A5FF; transform-origin: 310.983px 115.625px;" id="elq02gyn2uu2" class="animable"></path><g id="elv08qqi6v2x"><path d="M323.21,112.16c.89,6.76-3.29,16-10,18.5-7.22-1-13.56-8.53-14.44-15.29s2.63-13.63,10.51-14.66S322.32,105.41,323.21,112.16Z" style="opacity: 0.2; transform-origin: 310.983px 115.625px;" class="animable" id="elxt8op3tuu09"></path></g><g id="el7rcp7bgx8mr"><path d="M299.75,118.83s2.67,6.24,10.76,5.71c7.79-.52,13-9.83,12-15.41a16.1,16.1,0,0,1,.71,3c.89,6.76-3.29,16-10,18.5-6-.85-11.36-6.15-13.53-11.79Z" style="opacity: 0.1; transform-origin: 311.514px 119.88px;" class="animable" id="elhousbvru5cp"></path></g><path d="M333.4,148.78h0a6.82,6.82,0,0,0-1.22-3.8c-.34-.1-2.58,1.76-2.83,2.67h0a1,1,0,0,0,.36,1,3.28,3.28,0,0,0,2.86.79,1,1,0,0,0,.83-.66Z" style="fill: #00A5FF; transform-origin: 331.364px 147.241px;" id="elbzpil7zqw4n" class="animable"></path><g id="elva9vnjw1eb"><path d="M333.4,148.78h0a6.82,6.82,0,0,0-1.22-3.8c-.34-.1-2.58,1.76-2.83,2.67h0a1,1,0,0,0,.36,1,3.28,3.28,0,0,0,2.86.79,1,1,0,0,0,.83-.66Z" style="opacity: 0.1; transform-origin: 331.364px 147.241px;" class="animable" id="elsv7dhhv0i4"></path></g><g id="el14oacvqa9dx"><path d="M333.4,148.78h0a6.82,6.82,0,0,0-1.22-3.8c-.34-.1-2.58,1.76-2.83,2.67h0a1,1,0,0,0,.36,1,3.28,3.28,0,0,0,2.86.79,1,1,0,0,0,.83-.66Z" style="fill: rgb(255, 255, 255); opacity: 0.5; transform-origin: 331.364px 147.241px;" class="animable" id="elitfb1x10il"></path></g><path d="M348.34,132.87c-1.82,6.57-9.27,13.42-16.44,13.12-6.25-3.77-9.15-13.15-7.33-19.72s7.76-11.51,15.41-9.39S350.16,126.31,348.34,132.87Z" style="fill: #00A5FF; transform-origin: 336.469px 131.191px;" id="el5iomlzib4ae" class="animable"></path><g id="elua9t9ybffj"><path d="M348.34,132.87c-1.82,6.57-9.27,13.42-16.44,13.12-6.25-3.77-9.15-13.15-7.33-19.72s7.76-11.51,15.41-9.39S350.16,126.31,348.34,132.87Z" style="fill: rgb(255, 255, 255); opacity: 0.5; transform-origin: 336.469px 131.191px;" class="animable" id="el5ervzsp0n2u"></path></g><g id="ellzrg853dpt"><path d="M324.14,129.84s0,6.79,7.67,9.46c7.37,2.57,15.77-4,17.06-9.5a15.42,15.42,0,0,1-.53,3.07c-1.82,6.57-9.27,13.42-16.44,13.12-5.18-3.13-8-10.1-7.85-16.14Z" style="opacity: 0.05; transform-origin: 336.457px 137.9px;" class="animable" id="elbcear7dwdii"></path></g><path d="M332.19,109.41h0a6.86,6.86,0,0,0-1.84-3.54A6.43,6.43,0,0,0,328,109h0a1.06,1.06,0,0,0,.52.92,3.27,3.27,0,0,0,3,.31,1.05,1.05,0,0,0,.71-.79Z" style="fill: #00A5FF; transform-origin: 330.115px 108.164px;" id="el09pknhhzsal5" class="animable"></path><g id="elekph6bk5wws"><path d="M332.19,109.41h0a6.86,6.86,0,0,0-1.84-3.54A6.43,6.43,0,0,0,328,109h0a1.06,1.06,0,0,0,.52.92,3.27,3.27,0,0,0,3,.31,1.05,1.05,0,0,0,.71-.79Z" style="opacity: 0.1; transform-origin: 330.115px 108.164px;" class="animable" id="elgrc7bhscix"></path></g><path d="M344.28,91.25c-.71,6.77-6.92,14.77-14,15.66-6.79-2.68-11.2-11.45-10.49-18.22S325.48,76,333.38,76.87,345,84.47,344.28,91.25Z" style="fill: #00A5FF; transform-origin: 332.041px 91.8474px;" id="elt7icydfv41o" class="animable"></path><g id="el82kp1zjhk7r"><path d="M319.91,92.28s1.14,6.69,9.13,8c7.7,1.31,14.89-6.54,15.25-12.2a15.5,15.5,0,0,1,0,3.12c-.71,6.77-6.92,14.77-14,15.66-5.62-2.22-9.62-8.63-10.42-14.61Z" style="opacity: 0.05; transform-origin: 332.119px 97.47px;" class="animable" id="eld02fvurifvi"></path></g></g></g></g><g id="freepik--Calendar--inject-132" class="animable" style="transform-origin: 181.15px 187.43px;"><g id="freepik--calendar--inject-132" class="animable" style="transform-origin: 181.15px 187.43px;"><path d="M55.82,295.91a3.07,3.07,0,0,1-1.3-3.18L85.76,154.45a5.8,5.8,0,0,1,2.39-3.25L274,43.89a4.09,4.09,0,0,1,3.7-.07A3.09,3.09,0,0,1,279,47L247.78,185.28a5.73,5.73,0,0,1-2.39,3.25L59.52,295.85A4.12,4.12,0,0,1,55.82,295.91Z" style="fill: #00A5FF; transform-origin: 166.759px 169.866px;" id="elxn1u1pz94m" class="animable"></path><g id="elz9bbmm3usdj"><path d="M55.82,295.91a3.07,3.07,0,0,1-1.3-3.18L85.76,154.45a5.8,5.8,0,0,1,2.39-3.25L274,43.89a4.09,4.09,0,0,1,3.7-.07A3.09,3.09,0,0,1,279,47L247.78,185.28a5.73,5.73,0,0,1-2.39,3.25L59.52,295.85A4.12,4.12,0,0,1,55.82,295.91Z" style="fill: rgb(255, 255, 255); opacity: 0.8; transform-origin: 166.759px 169.866px;" class="animable" id="elf9kzzx06azr"></path></g><path d="M89.34,156.52,58.1,294.8c-.27,1.18.37,1.65,1.42,1.05L245.39,188.53a5.73,5.73,0,0,0,2.39-3.25L279,47c.27-1.19-.37-1.66-1.42-1L91.73,153.27A5.76,5.76,0,0,0,89.34,156.52Z" style="fill: #00A5FF; transform-origin: 168.55px 170.905px;" id="elhlq0etyor5" class="animable"></path><g id="elv8vqca5ueek"><path d="M89.34,156.52,58.1,294.8c-.27,1.18.37,1.65,1.42,1.05L245.39,188.53a5.73,5.73,0,0,0,2.39-3.25L279,47c.27-1.19-.37-1.66-1.42-1L91.73,153.27A5.76,5.76,0,0,0,89.34,156.52Z" style="fill: rgb(255, 255, 255); opacity: 0.6; transform-origin: 168.55px 170.905px;" class="animable" id="el3rm5v6lcgxf"></path></g><g id="elnqgczmjprci"><path d="M89.34,156.52,58.1,294.8c-.27,1.18.37,1.65,1.42,1.05L245.39,188.53a5.73,5.73,0,0,0,2.39-3.25L279,47c.27-1.19-.37-1.66-1.42-1L91.73,153.27A5.76,5.76,0,0,0,89.34,156.52Z" style="opacity: 0.05; transform-origin: 168.55px 170.905px;" class="animable" id="elaus82e81x1"></path></g><path d="M281.3,45.89a4.09,4.09,0,0,0-3.7.07L91.73,153.27a3.53,3.53,0,0,0-1.6,3.28l24.44,171.28a5,5,0,0,0,2.1,3.21,4.07,4.07,0,0,0,3.69-.07L306.23,223.66a3.51,3.51,0,0,0,1.6-3.28L283.4,49.1A5,5,0,0,0,281.3,45.89Z" style="fill: #00A5FF; transform-origin: 198.981px 188.465px;" id="ellddt7enhmik" class="animable"></path><g id="elzgxeo9ugfvj"><path d="M281.3,45.89a4.09,4.09,0,0,0-3.7.07L91.73,153.27a3.53,3.53,0,0,0-1.6,3.28l24.44,171.28a5,5,0,0,0,2.1,3.21,4.07,4.07,0,0,0,3.69-.07L306.23,223.66a3.51,3.51,0,0,0,1.6-3.28L283.4,49.1A5,5,0,0,0,281.3,45.89Z" style="fill: rgb(255, 255, 255); opacity: 0.8; transform-origin: 198.981px 188.465px;" class="animable" id="elw14j3ii952"></path></g><path d="M93.71,158.62l24.43,171.27a1.39,1.39,0,0,0,2.22,1.08L306.23,223.66a3.51,3.51,0,0,0,1.6-3.28L283.4,49.1A1.39,1.39,0,0,0,281.18,48L95.31,155.34A3.51,3.51,0,0,0,93.71,158.62Z" style="fill: #00A5FF; transform-origin: 200.77px 189.485px;" id="el5s7qelvayno" class="animable"></path><g id="el55h3wimgelp"><path d="M93.71,158.62l24.43,171.27a1.39,1.39,0,0,0,2.22,1.08L306.23,223.66a3.51,3.51,0,0,0,1.6-3.28L283.4,49.1A1.39,1.39,0,0,0,281.18,48L95.31,155.34A3.51,3.51,0,0,0,93.71,158.62Z" style="fill: rgb(255, 255, 255); opacity: 0.95; transform-origin: 200.77px 189.485px;" class="animable" id="elsc2pr5bj53f"></path></g><path d="M107.26,276.55l-21.83,12.6h0a3.21,3.21,0,0,0-1.34,0l-25.74,5h-.08l47.57-27.48Z" style="fill: #00A5FF; transform-origin: 82.765px 280.41px;" id="elu1rft7lbq7l" class="animable"></path><g id="elqvwk2oh33v9"><path d="M107.26,276.55l-21.83,12.6h0a3.21,3.21,0,0,0-1.34,0l-25.74,5h-.08l47.57-27.48Z" style="fill: rgb(255, 255, 255); opacity: 0.5; transform-origin: 82.765px 280.41px;" class="animable" id="eld46fagdezb9"></path></g><g id="eln1jxjf0tlor"><path d="M107.26,276.55l-21.83,12.6h0a3.21,3.21,0,0,0-1.34,0l-25.74,5h-.08l47.57-27.48Z" style="opacity: 0.2; transform-origin: 82.765px 280.41px;" class="animable" id="elne71p89rud"></path></g><path d="M114.38,326.49,87.56,290.36a3.68,3.68,0,0,0-2-1.27l21.73-12.54Z" style="fill: #00A5FF; transform-origin: 99.97px 301.52px;" id="elzylmj5ryrpe" class="animable"></path><g id="el6dzgnwkw2ps"><path d="M114.38,326.49,87.56,290.36a3.68,3.68,0,0,0-2-1.27l21.73-12.54Z" style="fill: rgb(255, 255, 255); opacity: 0.6; transform-origin: 99.97px 301.52px;" class="animable" id="elqpotl178ub"></path></g><g id="ellz9mh98hexe"><path d="M114.38,326.49,87.56,290.36a3.68,3.68,0,0,0-2-1.27l21.73-12.54Z" style="opacity: 0.1; transform-origin: 99.97px 301.52px;" class="animable" id="elww1zctmb7h"></path></g><path d="M113.53,328.18,87.59,294.47A4.18,4.18,0,0,0,84.06,293l-24.27,3.51a7.23,7.23,0,0,1-4-.72c-1-.57-.82-1.22.38-1.45L84.08,289a3.85,3.85,0,0,1,3.48,1.35l29.58,39.86c.73,1,.51,1.31-.47.74A13.1,13.1,0,0,1,113.53,328.18Z" style="fill: #00A5FF; transform-origin: 86.3569px 310.099px;" id="elcibu8olqvja" class="animable"></path><g id="elr8sb8wjklff"><path d="M113.53,328.18,87.59,294.47A4.18,4.18,0,0,0,84.06,293l-24.27,3.51a7.23,7.23,0,0,1-4-.72c-1-.57-.82-1.22.38-1.45L84.08,289a3.85,3.85,0,0,1,3.48,1.35l29.58,39.86c.73,1,.51,1.31-.47.74A13.1,13.1,0,0,1,113.53,328.18Z" style="fill: rgb(255, 255, 255); opacity: 0.8; transform-origin: 86.3569px 310.099px;" class="animable" id="elp8qowwo5uwn"></path></g><path d="M279.08,46.32a3,3,0,0,0-1.36-2.5,4.16,4.16,0,0,0-3.7.07L88.15,151.21a5.23,5.23,0,0,0-1.45,1.35,5.38,5.38,0,0,0-1,1.9L81.35,174l3.58,2.06L274.61,66.53,279,47a2.88,2.88,0,0,0,.06-.69Z" style="fill: #00A5FF; transform-origin: 180.215px 109.74px;" id="elk5iyjg25qv9" class="animable"></path><g id="elhmbuuvf7ph6"><path d="M279,47c.27-1.19-.37-1.66-1.42-1L91.73,153.27a5.76,5.76,0,0,0-2.39,3.25l-4.41,19.53L274.61,66.53Z" style="opacity: 0.6; transform-origin: 181.996px 110.875px;" class="animable" id="ele2tjolajp4"></path></g><g id="elfknx9f4jdq"><path d="M90.27,154.63a5.12,5.12,0,0,0-.93,1.89l-4.41,19.53L81.35,174l4.4-19.53a5.38,5.38,0,0,1,1-1.9Z" style="opacity: 0.5; transform-origin: 85.81px 164.31px;" class="animable" id="elb54vo4x3irn"></path></g><g id="eldp1764p7xef"><path d="M279.08,46.32c-.09-.66-.66-.83-1.48-.36L91.73,153.27a5.15,5.15,0,0,0-1.46,1.36l-3.57-2.07a5.23,5.23,0,0,1,1.45-1.35L274,43.89a4.12,4.12,0,0,1,3.7-.07A3,3,0,0,1,279.08,46.32Z" style="opacity: 0.2; transform-origin: 182.89px 99.0227px;" class="animable" id="elutu1v4hvfqe"></path></g><path d="M283.62,50.74h0l-.23-1.64c0-.07,0-.15,0-.23s0,0,0-.07h0a5,5,0,0,0-2-2.9,4.09,4.09,0,0,0-3.7.07L91.73,153.27a3.3,3.3,0,0,0-1.28,1.47h0a3.31,3.31,0,0,0-.32,1.81l3.51,24.54,3.58,2.07L286.9,73.66Z" style="fill: #00A5FF; transform-origin: 188.506px 114.326px;" id="elt1wqzj1nkm" class="animable"></path><g id="elg4vy2lxewzj"><path d="M286.9,73.66,97.22,183.16l-3.51-24.54A3.27,3.27,0,0,1,94,156.8a3.39,3.39,0,0,1,1.28-1.46L281.18,48a1.35,1.35,0,0,1,2.13.7l0,.07v.07a2.1,2.1,0,0,1,.06.24l.23,1.63h0Z" style="opacity: 0.4; transform-origin: 190.292px 115.437px;" class="animable" id="elhw74mjokdhr"></path></g><g id="el0ct89ycpki5p"><path d="M97.22,183.16l-3.58-2.07-3.51-24.54a3.31,3.31,0,0,1,.32-1.81L94,156.8a3.26,3.26,0,0,0-.32,1.82Z" style="opacity: 0.5; transform-origin: 93.6656px 168.95px;" class="animable" id="elyx8x70ta7ah"></path></g><g id="elgls1dv6s8ws"><path d="M283.33,48.8a1.36,1.36,0,0,0-2.15-.78L95.31,155.34A3.27,3.27,0,0,0,94,156.8l-3.58-2.06a3.36,3.36,0,0,1,1.28-1.47L277.6,46a4.09,4.09,0,0,1,3.7-.07A4.92,4.92,0,0,1,283.33,48.8Z" style="opacity: 0.3; transform-origin: 186.875px 101.161px;" class="animable" id="eln6l1sopoxyf"></path></g><g id="elouaz0jkf24c"><g style="opacity: 0.2; transform-origin: 189.474px 113.345px;" class="animable" id="elc5lknr5gurr"><path d="M110.76,158.82a6.36,6.36,0,0,1,3-5.89c2-1.14,3.82-.35,4.12,1.76a6.39,6.39,0,0,1-3,5.88C112.9,161.71,111.06,160.93,110.76,158.82Z" id="el6y49lk8z9qd" class="animable" style="transform-origin: 114.319px 156.751px;"></path><path d="M135.83,144.34a6.39,6.39,0,0,1,3-5.88c2-1.14,3.82-.36,4.12,1.75a6.39,6.39,0,0,1-3,5.89C138,147.24,136.13,146.45,135.83,144.34Z" id="el9q64t2xyz5t" class="animable" style="transform-origin: 139.39px 142.279px;"></path><path d="M160.86,129.89a6.39,6.39,0,0,1,3-5.89c2-1.14,3.82-.35,4.12,1.75a6.4,6.4,0,0,1-3,5.89C163,132.78,161.17,132,160.86,129.89Z" id="ellkjywaybwka" class="animable" style="transform-origin: 164.42px 127.821px;"></path><path d="M211,101a6.4,6.4,0,0,1,3-5.89c2-1.14,3.82-.35,4.12,1.75a6.38,6.38,0,0,1-3,5.89C213.1,103.86,211.26,103.07,211,101Z" id="el0nyylx09yl5" class="animable" style="transform-origin: 214.56px 98.9204px;"></path><path d="M236,86.49a6.37,6.37,0,0,1,3-5.88c2-1.14,3.82-.36,4.12,1.75a6.38,6.38,0,0,1-3,5.88C238.18,89.39,236.34,88.6,236,86.49Z" id="elk5t65gzrs4" class="animable" style="transform-origin: 239.56px 84.4272px;"></path><path d="M261.07,72a6.37,6.37,0,0,1,3-5.88c2-1.14,3.82-.36,4.12,1.75a6.4,6.4,0,0,1-3,5.89C263.21,74.93,261.37,74.14,261.07,72Z" id="eli3oizmzb38c" class="animable" style="transform-origin: 264.63px 69.9485px;"></path></g></g><path d="M118.34,151.27a11.73,11.73,0,0,1-.19,2.16,8.68,8.68,0,0,1-.27,1.09,6.61,6.61,0,0,1-3,4,6.13,6.13,0,0,1-3.17.84,6.36,6.36,0,0,1-.87-.06c0-.15-.07-.3-.1-.47a5.43,5.43,0,0,1,.47-2.87,3.18,3.18,0,0,0,2-.35,4.09,4.09,0,0,0,1.69-3.12.8.8,0,0,0,0-.15c0-.31,0-.66,0-1.06a17.38,17.38,0,0,0-3.34-9.5,18.16,18.16,0,0,0-2.38-2.75,13.12,13.12,0,0,0-2.38-1.79c-1.83-1-3.51-1.28-4.65-.63s-1.78,2.21-1.78,4.34a13.24,13.24,0,0,0,.37,3l-3,1.73-.06-.2a16.72,16.72,0,0,1-.66-4.49c0-3.39,1.23-6,3.46-7.25s5.07-1.06,8,.63a16.94,16.94,0,0,1,3.7,3,23.45,23.45,0,0,1,2.26,2.82A20.81,20.81,0,0,1,118.34,151.27Z" style="fill: rgb(55, 71, 79); transform-origin: 107.68px 146.146px;" id="el8ggyp09q1zy" class="animable"></path><path d="M143.42,136.79a12.7,12.7,0,0,1-.19,2.17,9,9,0,0,1-.27,1.11,6.61,6.61,0,0,1-3,4,6.2,6.2,0,0,1-3.17.83,6.06,6.06,0,0,1-.85-.05,3.57,3.57,0,0,1-.11-.47,5.46,5.46,0,0,1,.46-2.88,3.15,3.15,0,0,0,2-.34A4.11,4.11,0,0,0,140,138a.77.77,0,0,1,0-.15,8.38,8.38,0,0,0,.06-1.07,17.31,17.31,0,0,0-3.35-9.49,17.12,17.12,0,0,0-2.37-2.75,13.25,13.25,0,0,0-2.39-1.8c-1.82-1-3.51-1.27-4.65-.62s-1.78,2.2-1.78,4.34a12.7,12.7,0,0,0,.38,2.95l-3,1.73-.06-.2a16.65,16.65,0,0,1-.66-4.48c0-3.39,1.23-6,3.47-7.25s5.07-1.07,8,.62a16.82,16.82,0,0,1,3.7,3,23.15,23.15,0,0,1,2.26,2.81A20.77,20.77,0,0,1,143.42,136.79Z" style="fill: rgb(55, 71, 79); transform-origin: 132.8px 131.649px;" id="elxlch00mroy" class="animable"></path><path d="M168.45,122.34a12.88,12.88,0,0,1-.19,2.17,9.3,9.3,0,0,1-.27,1.1,6.66,6.66,0,0,1-3,4,6.38,6.38,0,0,1-4,.77,3,3,0,0,1-.11-.47,5.52,5.52,0,0,1,.46-2.87,3.15,3.15,0,0,0,2-.35,4.05,4.05,0,0,0,1.7-3.12s0-.1,0-.15a8.32,8.32,0,0,0,.06-1.06,17.29,17.29,0,0,0-3.35-9.49,17.65,17.65,0,0,0-2.37-2.76A13,13,0,0,0,157,108.3c-1.82-1-3.51-1.27-4.64-.63s-1.79,2.2-1.79,4.34a13.24,13.24,0,0,0,.37,3l-3,1.74,0-.21a16.75,16.75,0,0,1-.67-4.49c0-3.38,1.23-6,3.47-7.25s5.07-1.06,8,.63a16.77,16.77,0,0,1,3.7,3,21.71,21.71,0,0,1,2.27,2.82A20.84,20.84,0,0,1,168.45,122.34Z" style="fill: rgb(55, 71, 79); transform-origin: 157.86px 117.214px;" id="el53wilxkuv3v" class="animable"></path><path d="M218.55,93.46a12,12,0,0,1-.18,2.17,9.64,9.64,0,0,1-.27,1.12,6.71,6.71,0,0,1-3,4,6.25,6.25,0,0,1-3.16.82,6.36,6.36,0,0,1-.87-.06,2.61,2.61,0,0,1-.11-.5,5.51,5.51,0,0,1,.44-2.84,3.18,3.18,0,0,0,2-.34,4.11,4.11,0,0,0,1.7-3.16s0-.08,0-.12a8.21,8.21,0,0,0,.05-1.05,17.42,17.42,0,0,0-3.36-9.53,17.68,17.68,0,0,0-2.39-2.75,13.21,13.21,0,0,0-2.35-1.76c-1.83-1-3.51-1.27-4.65-.63s-1.78,2.2-1.78,4.34A12.92,12.92,0,0,0,201,86l-3,1.74,0-.16a16.83,16.83,0,0,1-.66-4.49c0-3.39,1.23-6,3.47-7.25s5.06-1.07,8,.63a16.64,16.64,0,0,1,3.67,2.94,21.71,21.71,0,0,1,2.27,2.82A20.74,20.74,0,0,1,218.55,93.46Z" style="fill: rgb(55, 71, 79); transform-origin: 207.945px 88.2991px;" id="el6m9wo89am0a" class="animable"></path><path d="M243.63,79a11.76,11.76,0,0,1-.19,2.17,9.17,9.17,0,0,1-.27,1.12,6.68,6.68,0,0,1-3,4,6.22,6.22,0,0,1-3.17.83,6.47,6.47,0,0,1-.87-.06c0-.16-.08-.33-.11-.51a5.37,5.37,0,0,1,.45-2.83,3.18,3.18,0,0,0,2-.35,4.11,4.11,0,0,0,1.7-3.16s0-.07,0-.11c0-.31.05-.65.05-1.06a17.33,17.33,0,0,0-3.37-9.52,18.25,18.25,0,0,0-2.38-2.76,13.21,13.21,0,0,0-2.35-1.76c-1.83-1-3.51-1.27-4.65-.62s-1.78,2.2-1.78,4.34a12.77,12.77,0,0,0,.36,2.9l-3,1.75,0-.16a16.77,16.77,0,0,1-.66-4.49c0-3.39,1.23-6,3.46-7.25s5.07-1.07,8,.62a16.71,16.71,0,0,1,3.65,3h0a20.06,20.06,0,0,1,2.27,2.81A20.81,20.81,0,0,1,243.63,79Z" style="fill: rgb(55, 71, 79); transform-origin: 233.01px 73.8887px;" id="elqrwril50358" class="animable"></path><path d="M268.66,64.52a12,12,0,0,1-.19,2.18,9.64,9.64,0,0,1-.27,1.09,6.67,6.67,0,0,1-3,4,6.7,6.7,0,0,1-4,.77c0-.16-.08-.34-.11-.52a5.48,5.48,0,0,1,.44-2.83,3.14,3.14,0,0,0,2-.34,4.1,4.1,0,0,0,1.69-3.16s0-.07,0-.11a8.49,8.49,0,0,0,.06-1.07A17.31,17.31,0,0,0,261.94,55a17.73,17.73,0,0,0-2.4-2.75,12.36,12.36,0,0,0-2.34-1.76c-1.83-1.05-3.51-1.27-4.65-.62s-1.78,2.2-1.78,4.33a12.85,12.85,0,0,0,.36,2.91l-3,1.74,0-.16a16.83,16.83,0,0,1-.66-4.49c0-3.39,1.23-6,3.46-7.25s5.07-1.07,8,.63a16.37,16.37,0,0,1,3.66,2.93,21.87,21.87,0,0,1,2.28,2.83A20.82,20.82,0,0,1,268.66,64.52Z" style="fill: rgb(55, 71, 79); transform-origin: 258.065px 59.3725px;" id="el6kazricosok" class="animable"></path><polygon points="101.36 212 291.03 102.59 286.9 73.66 97.22 183.08 101.36 212" style="fill: #00A5FF; transform-origin: 194.125px 142.83px;" id="elhcnyh44yh4b" class="animable"></polygon><g id="el05msi0fy9etj"><g style="opacity: 0.65; transform-origin: 194.125px 142.83px;" class="animable" id="elztye69midvb"><polygon points="101.36 212 291.03 102.59 286.9 73.66 97.22 183.08 101.36 212" style="fill: rgb(255, 255, 255); transform-origin: 194.125px 142.83px;" id="el0bdbwwvqii8p" class="animable"></polygon></g></g><path d="M116.31,219c.23,1.59,1.71,2.14,3.3,1.22L133.85,212a5,5,0,0,0,2.47-4.57c-.22-1.59-1.7-2.14-3.3-1.22l-14.23,8.22A5,5,0,0,0,116.31,219Z" style="fill: #00A5FF; transform-origin: 126.315px 213.215px;" id="elcx8qbsjdyr" class="animable"></path><path d="M140.32,205.16c.23,1.6,1.7,2.15,3.3,1.23l14.24-8.22a5,5,0,0,0,2.47-4.56c-.23-1.59-1.71-2.14-3.3-1.22L142.8,200.6A5,5,0,0,0,140.32,205.16Z" style="fill: #00A5FF; transform-origin: 150.325px 199.39px;" id="elzlidck5p6qo" class="animable"></path><path d="M164.33,191.3c.22,1.6,1.7,2.15,3.3,1.22l14.23-8.21a5,5,0,0,0,2.48-4.56c-.23-1.6-1.71-2.14-3.3-1.22l-14.24,8.21A5,5,0,0,0,164.33,191.3Z" style="fill: #00A5FF; transform-origin: 174.335px 185.527px;" id="ell8rgiilfmni" class="animable"></path><path d="M188.33,177.44c.23,1.6,1.71,2.14,3.31,1.22l14.23-8.21a5,5,0,0,0,2.48-4.56c-.23-1.6-1.71-2.15-3.31-1.22l-14.23,8.21A5,5,0,0,0,188.33,177.44Z" style="fill: #00A5FF; transform-origin: 198.34px 171.663px;" id="el4cbzt32gop" class="animable"></path><path d="M212.34,163.58c.23,1.6,1.71,2.14,3.3,1.22l14.24-8.21a5,5,0,0,0,2.48-4.56c-.23-1.6-1.71-2.15-3.31-1.23L214.82,159A5,5,0,0,0,212.34,163.58Z" style="fill: #00A5FF; transform-origin: 222.35px 157.801px;" id="el0ib79v8ctu4o" class="animable"></path><path d="M236.35,149.72c.23,1.59,1.71,2.14,3.3,1.22l14.24-8.21a5,5,0,0,0,2.47-4.57c-.22-1.59-1.7-2.14-3.3-1.22l-14.23,8.22A5,5,0,0,0,236.35,149.72Z" style="fill: #00A5FF; transform-origin: 246.355px 143.94px;" id="elcitm8f1knrk" class="animable"></path><path d="M260.36,135.85c.23,1.6,1.7,2.15,3.3,1.23l14.24-8.22a5,5,0,0,0,2.47-4.56c-.23-1.59-1.71-2.14-3.3-1.22l-14.23,8.21A5,5,0,0,0,260.36,135.85Z" style="fill: #00A5FF; transform-origin: 270.365px 130.08px;" id="elndsdgoay6x" class="animable"></path><g id="el4hevpujgiki"><g style="opacity: 0.17; transform-origin: 206.194px 226.61px;" class="animable" id="elvm74sjvqu5c"><path d="M296.16,219.19a.76.76,0,0,1-.81-.59l-11.59-81a.59.59,0,0,1,.63-.64.75.75,0,0,1,.8.59l11.6,81A.59.59,0,0,1,296.16,219.19Z" style="fill: #00A5FF; transform-origin: 290.275px 178.075px;" id="el5lnkad6ojhi" class="animable"></path><path d="M272.14,233.06a.77.77,0,0,1-.81-.59l-11.59-81a.6.6,0,0,1,.63-.65.76.76,0,0,1,.8.59l11.6,81A.6.6,0,0,1,272.14,233.06Z" style="fill: #00A5FF; transform-origin: 266.255px 191.94px;" id="el7h8fra2qxqw" class="animable"></path><path d="M248.12,246.93a.76.76,0,0,1-.8-.59l-11.6-81a.6.6,0,0,1,.63-.65.77.77,0,0,1,.81.59l11.59,81A.6.6,0,0,1,248.12,246.93Z" style="fill: #00A5FF; transform-origin: 242.235px 205.81px;" id="eliinpdxrkbjm" class="animable"></path><path d="M224.1,260.79a.75.75,0,0,1-.8-.58l-11.6-81a.59.59,0,0,1,.63-.64.76.76,0,0,1,.81.59l11.59,81A.59.59,0,0,1,224.1,260.79Z" style="fill: #00A5FF; transform-origin: 218.215px 219.68px;" id="el2l0l3cypoq" class="animable"></path><path d="M200.09,274.66a.77.77,0,0,1-.81-.59l-11.6-81a.6.6,0,0,1,.63-.65.77.77,0,0,1,.81.59l11.6,81A.6.6,0,0,1,200.09,274.66Z" style="fill: #00A5FF; transform-origin: 194.2px 233.54px;" id="el60sbfgeg0sw" class="animable"></path><path d="M176.07,288.53a.77.77,0,0,1-.81-.59l-11.6-81a.61.61,0,0,1,.63-.65.77.77,0,0,1,.81.59l11.6,81A.61.61,0,0,1,176.07,288.53Z" style="fill: #00A5FF; transform-origin: 170.18px 247.41px;" id="el3ttlhiejeo6" class="animable"></path><path d="M152.05,302.39a.76.76,0,0,1-.81-.58l-11.59-81a.6.6,0,0,1,.63-.65.76.76,0,0,1,.8.59l11.6,81A.59.59,0,0,1,152.05,302.39Z" style="fill: #00A5FF; transform-origin: 146.165px 261.276px;" id="elg55tyboqumo" class="animable"></path><path d="M128,316.26a.76.76,0,0,1-.81-.58l-11.59-81a.59.59,0,0,1,.63-.64.75.75,0,0,1,.8.58l11.6,81A.59.59,0,0,1,128,316.26Z" style="fill: #00A5FF; transform-origin: 122.115px 275.15px;" id="elfqpo6o75w4a" class="animable"></path><path d="M119.33,255.53a.81.81,0,0,1-.66-.29.54.54,0,0,1,.14-.85l168.13-97.07a.83.83,0,0,1,1,.19.54.54,0,0,1-.14.85L119.68,255.43A.88.88,0,0,1,119.33,255.53Z" style="fill: #00A5FF; transform-origin: 203.305px 206.38px;" id="eloqp7wgxzj9n" class="animable"></path><path d="M122.23,275.77a.82.82,0,0,1-.66-.28.54.54,0,0,1,.14-.85l168.13-97.07a.81.81,0,0,1,1,.18.54.54,0,0,1-.14.85L122.58,275.67A.74.74,0,0,1,122.23,275.77Z" style="fill: #00A5FF; transform-origin: 206.205px 226.621px;" id="el5etgr2afdua" class="animable"></path><path d="M125.13,296a.82.82,0,0,1-.67-.29.54.54,0,0,1,.15-.85l168.12-97.07a.84.84,0,0,1,1,.19.55.55,0,0,1-.14.85L125.48,295.92A.88.88,0,0,1,125.13,296Z" style="fill: #00A5FF; transform-origin: 209.094px 246.851px;" id="el3r01um2pr6" class="animable"></path><path d="M128,316.26a.81.81,0,0,1-.37-.07.7.7,0,0,1-.44-.51l-11.59-81a.54.54,0,0,1,.28-.55L284,137.08a.79.79,0,0,1,.72,0,.67.67,0,0,1,.43.52l11.6,81a.53.53,0,0,1-.28.54L128.38,316.16A.68.68,0,0,1,128,316.26ZM117.12,235l11.39,79.56,166.79-96.3-11.39-79.56Z" style="fill: #00A5FF; transform-origin: 206.175px 226.627px;" id="elutqtxdwwksa" class="animable"></path></g></g><g id="el0j0hce5hw64p"><g style="opacity: 0.17; transform-origin: 206.194px 226.61px;" class="animable" id="elcetysw583zb"><path d="M296.16,219.19a.76.76,0,0,1-.81-.59l-11.59-81a.59.59,0,0,1,.63-.64.75.75,0,0,1,.8.59l11.6,81A.59.59,0,0,1,296.16,219.19Z" id="elvnkl6u2jl57" class="animable" style="transform-origin: 290.275px 178.075px;"></path><path d="M272.14,233.06a.77.77,0,0,1-.81-.59l-11.59-81a.6.6,0,0,1,.63-.65.76.76,0,0,1,.8.59l11.6,81A.6.6,0,0,1,272.14,233.06Z" id="el39p8u7upi9r" class="animable" style="transform-origin: 266.255px 191.94px;"></path><path d="M248.12,246.93a.76.76,0,0,1-.8-.59l-11.6-81a.6.6,0,0,1,.63-.65.77.77,0,0,1,.81.59l11.59,81A.6.6,0,0,1,248.12,246.93Z" id="elku0fe1q35un" class="animable" style="transform-origin: 242.235px 205.81px;"></path><path d="M224.1,260.79a.75.75,0,0,1-.8-.58l-11.6-81a.59.59,0,0,1,.63-.64.76.76,0,0,1,.81.59l11.59,81A.59.59,0,0,1,224.1,260.79Z" id="elwk82jvcm8mm" class="animable" style="transform-origin: 218.215px 219.68px;"></path><path d="M200.09,274.66a.77.77,0,0,1-.81-.59l-11.6-81a.6.6,0,0,1,.63-.65.77.77,0,0,1,.81.59l11.6,81A.6.6,0,0,1,200.09,274.66Z" id="el2ga2x2ksi8g" class="animable" style="transform-origin: 194.2px 233.54px;"></path><path d="M176.07,288.53a.77.77,0,0,1-.81-.59l-11.6-81a.61.61,0,0,1,.63-.65.77.77,0,0,1,.81.59l11.6,81A.61.61,0,0,1,176.07,288.53Z" id="el107eif8sbe8" class="animable" style="transform-origin: 170.18px 247.41px;"></path><path d="M152.05,302.39a.76.76,0,0,1-.81-.58l-11.59-81a.6.6,0,0,1,.63-.65.76.76,0,0,1,.8.59l11.6,81A.59.59,0,0,1,152.05,302.39Z" id="el4jrbtaecta" class="animable" style="transform-origin: 146.165px 261.276px;"></path><path d="M128,316.26a.76.76,0,0,1-.81-.58l-11.59-81a.59.59,0,0,1,.63-.64.75.75,0,0,1,.8.58l11.6,81A.59.59,0,0,1,128,316.26Z" id="el2syjezjyliw" class="animable" style="transform-origin: 122.115px 275.15px;"></path><path d="M119.33,255.53a.81.81,0,0,1-.66-.29.54.54,0,0,1,.14-.85l168.13-97.07a.83.83,0,0,1,1,.19.54.54,0,0,1-.14.85L119.68,255.43A.88.88,0,0,1,119.33,255.53Z" id="elie6491k5srl" class="animable" style="transform-origin: 203.305px 206.38px;"></path><path d="M122.23,275.77a.82.82,0,0,1-.66-.28.54.54,0,0,1,.14-.85l168.13-97.07a.81.81,0,0,1,1,.18.54.54,0,0,1-.14.85L122.58,275.67A.74.74,0,0,1,122.23,275.77Z" id="el89j7nbiq7as" class="animable" style="transform-origin: 206.205px 226.621px;"></path><path d="M125.13,296a.82.82,0,0,1-.67-.29.54.54,0,0,1,.15-.85l168.12-97.07a.84.84,0,0,1,1,.19.55.55,0,0,1-.14.85L125.48,295.92A.88.88,0,0,1,125.13,296Z" id="el49onz4s6h6n" class="animable" style="transform-origin: 209.094px 246.851px;"></path><path d="M128,316.26a.81.81,0,0,1-.37-.07.7.7,0,0,1-.44-.51l-11.59-81a.54.54,0,0,1,.28-.55L284,137.08a.79.79,0,0,1,.72,0,.67.67,0,0,1,.43.52l11.6,81a.53.53,0,0,1-.28.54L128.38,316.16A.68.68,0,0,1,128,316.26ZM117.12,235l11.39,79.56,166.79-96.3-11.39-79.56Z" id="el61gla2uw6kp" class="animable" style="transform-origin: 206.175px 226.627px;"></path></g></g><path d="M214.73,192.05a6.84,6.84,0,0,0-5-5.64c-3.76-.95-6.43,1.62-8.38,3.78-.51.58.59.79,1,.39,2-2,6.06-4,8.91-1.61s2.08,6.14,1.21,8.92A13,13,0,0,1,200.08,207c-13.56-.31-1.93-21.2,5.87-22.68.63-.12,1-1,.08-1.08-4.09-.4-6.51,2.79-8.69,5.2a23,23,0,0,0-5.18,9c-1.8,6.23,3.23,13.59,11.6,10.84C211.08,205.89,216.21,199.12,214.73,192.05Z" style="fill: rgb(242, 143, 143); transform-origin: 203.39px 196.039px;" id="el5aotjs5ug0q" class="animable"></path><path d="M276.81,170.42l1.17,1.65a.24.24,0,0,0,.31.09l2-.77c.31-.12.5.27.32.67l-1.16,2.47a.71.71,0,0,0-.05.47l.67,2.17c.11.35-.17.82-.47.8l-1.88-.12a.41.41,0,0,0-.35.2l-1.56,2.11c-.25.33-.61.23-.61-.18v-2.55a.35.35,0,0,0-.17-.34l-1.63-.87c-.26-.14-.2-.67.1-.9l1.87-1.46a.72.72,0,0,0,.25-.41l.55-2.64C276.23,170.39,276.62,170.16,276.81,170.42Z" style="fill: rgb(242, 143, 143); transform-origin: 276.958px 175.334px;" id="el4x8lwrirzpj" class="animable"></path><path d="M288.27,169.78a6.84,6.84,0,0,0-5-5.64c-3.76-.95-6.43,1.62-8.38,3.78-.51.57.6.79,1,.39,2.05-2,6.06-4,8.92-1.61s2.07,6.14,1.2,8.92a13,13,0,0,1-12.37,9.06c-13.56-.31-1.92-21.2,5.87-22.67.63-.12.95-1,.08-1.09-4.09-.4-6.51,2.79-8.68,5.21a22.84,22.84,0,0,0-5.19,9.05c-1.8,6.23,3.23,13.59,11.6,10.84C284.62,183.62,289.75,176.85,288.27,169.78Z" style="fill: rgb(242, 143, 143); transform-origin: 276.94px 173.749px;" id="elx8idygoiwvc" class="animable"></path><path d="M265.17,208a6.83,6.83,0,0,0-5-5.63c-3.76-1-6.43,1.61-8.38,3.78-.51.57.59.78,1,.38,2-2,6.06-4,8.91-1.61s2.08,6.15,1.21,8.92a13,13,0,0,1-12.37,9.07c-13.56-.31-1.92-21.2,5.87-22.68.63-.12.95-1,.08-1.08-4.09-.4-6.51,2.79-8.69,5.2a23,23,0,0,0-5.18,9.05c-1.8,6.23,3.23,13.59,11.6,10.84C261.52,221.87,266.65,215.1,265.17,208Z" style="fill: rgb(242, 143, 143); transform-origin: 253.84px 211.974px;" id="elou46gdanmv" class="animable"></path><path d="M242.1,201a22.81,22.81,0,0,0-2.79-3.12c-.38-.41-1.31,0-1.09.45.54,1.18,1.67,1.92,2.36,3,.11.17.24.36.38.55-1.63-1.32-5.16-2.11-6.6-2.56a25.83,25.83,0,0,0-13.5-.29c-.42.09-.25.46.12.53a5.37,5.37,0,0,0,2-.11,29.91,29.91,0,0,1,7.05.27c2.24.3,7.59,1.5,9.91,3.22-2.36-.58-4.83-.69-6.29.7a.31.31,0,0,0,.15.56c1.49.31,2.74-.05,4.24.15a20.3,20.3,0,0,1,5.06,1.27.78.78,0,0,0,1.09-.78C244.08,203.43,242.87,202.25,242.1,201Z" style="fill: rgb(242, 143, 143); transform-origin: 232.403px 201.698px;" id="ela724yg7shlo" class="animable"></path><path d="M158.39,154a4.16,4.16,0,0,1,1.77-.61,2.77,2.77,0,0,1,1.39.24,2.35,2.35,0,0,1,.94.83,3.37,3.37,0,0,1,.49,1.14.8.8,0,0,1,0,.48.61.61,0,0,1-.26.32l-1,.59a.46.46,0,0,1-.4.08,1,1,0,0,1-.28-.24,1.44,1.44,0,0,0-.8-.54,1.93,1.93,0,0,0-1.38.37,3.23,3.23,0,0,0-.7.53,3.49,3.49,0,0,0-.55.68,2.89,2.89,0,0,0-.31.78,2,2,0,0,0,0,.8,1.43,1.43,0,0,0,.27.72.74.74,0,0,0,.54.26,3.32,3.32,0,0,0,.93-.09l1.41-.33a6.3,6.3,0,0,1,1.61-.22,2.25,2.25,0,0,1,1.17.29,2.15,2.15,0,0,1,.78.85,4.62,4.62,0,0,1,.44,1.44,6.32,6.32,0,0,1,0,1.94,6.57,6.57,0,0,1-.61,1.88,7.26,7.26,0,0,1-1.18,1.69,7.37,7.37,0,0,1-1.71,1.36,4.87,4.87,0,0,1-1.6.61,2.89,2.89,0,0,1-1.44-.06,2.42,2.42,0,0,1-1.13-.77,3.44,3.44,0,0,1-.66-1.47.78.78,0,0,1,.05-.48.66.66,0,0,1,.26-.32l1-.59a.45.45,0,0,1,.39-.09.51.51,0,0,1,.28.25,3.29,3.29,0,0,0,.33.41,1,1,0,0,0,.47.26,1.57,1.57,0,0,0,.68,0,3.24,3.24,0,0,0,.94-.39,6,6,0,0,0,.83-.59,3.49,3.49,0,0,0,.66-.73,3.11,3.11,0,0,0,.41-.84,2,2,0,0,0,.06-.92.94.94,0,0,0-.32-.65,1.06,1.06,0,0,0-.7-.15,6,6,0,0,0-1.08.19c-.43.11-.93.22-1.49.33a5.3,5.3,0,0,1-1.37.13,1.86,1.86,0,0,1-1-.34,2.18,2.18,0,0,1-.72-.89,5.51,5.51,0,0,1-.43-1.54,6,6,0,0,1,0-1.93,6.81,6.81,0,0,1,.58-1.84,6.88,6.88,0,0,1,1.08-1.61A5.86,5.86,0,0,1,158.39,154Z" style="fill: rgb(69, 90, 100); transform-origin: 159.908px 161.647px;" id="elwl7ncc3teem" class="animable"></path><path d="M165.29,160.45a11.17,11.17,0,0,1-.1-2.38,9.36,9.36,0,0,1,.43-2.24,7.13,7.13,0,0,1,.94-1.87,4.36,4.36,0,0,1,1.41-1.3,2.59,2.59,0,0,1,1.54-.42,2.27,2.27,0,0,1,1.31.51,3.74,3.74,0,0,1,1,1.3,6.42,6.42,0,0,1,.58,1.93l.15,1a1.08,1.08,0,0,1-.05.47.6.6,0,0,1-.26.33l-4.85,2.81a1.88,1.88,0,0,0,.27.78,1.07,1.07,0,0,0,.47.41,1,1,0,0,0,.6.07,1.83,1.83,0,0,0,.64-.23,2.85,2.85,0,0,0,.74-.58,2.61,2.61,0,0,0,.42-.62,2,2,0,0,1,.23-.39.82.82,0,0,1,.26-.22l1.17-.68a.27.27,0,0,1,.31,0,.43.43,0,0,1,.17.34,3,3,0,0,1-.11.89,5.73,5.73,0,0,1-.49,1.28,7.47,7.47,0,0,1-.92,1.37,5.35,5.35,0,0,1-1.38,1.15,2.91,2.91,0,0,1-1.54.44,2.09,2.09,0,0,1-1.31-.53,3.91,3.91,0,0,1-1-1.4A8.87,8.87,0,0,1,165.29,160.45Zm3.07-5.25a2.53,2.53,0,0,0-.69.6,3.37,3.37,0,0,0-.43.76,3,3,0,0,0-.21.82,3.87,3.87,0,0,0,0,.74l3.29-1.9a4.76,4.76,0,0,0-.21-.6,1.23,1.23,0,0,0-.36-.49,1,1,0,0,0-.56-.19A1.76,1.76,0,0,0,168.36,155.2Z" style="fill: rgb(69, 90, 100); transform-origin: 168.919px 158.419px;" id="eltgylc303sxj" class="animable"></path><path d="M179,158.76a2.86,2.86,0,0,1-.82.34,2,2,0,0,1-.68,0A1.38,1.38,0,0,1,177,159a1.81,1.81,0,0,1-.37-.23l.7,4.52a.86.86,0,0,1-.05.47.58.58,0,0,1-.25.33l-1.11.64a.26.26,0,0,1-.3,0,.53.53,0,0,1-.18-.34l-2.16-13.92a1,1,0,0,1,.05-.47.63.63,0,0,1,.25-.33l1.11-.64a.25.25,0,0,1,.3,0,.46.46,0,0,1,.18.34l.08.49a3.33,3.33,0,0,1,.24-.59,3.94,3.94,0,0,1,.39-.68,4.46,4.46,0,0,1,.58-.68,3.67,3.67,0,0,1,.78-.6,2.33,2.33,0,0,1,1.38-.35,2.15,2.15,0,0,1,1.18.53,3.61,3.61,0,0,1,.9,1.21,6.68,6.68,0,0,1,.56,1.72c0,.21.09.45.13.73s.08.54.1.75a9.26,9.26,0,0,1,0,2,8.94,8.94,0,0,1-.4,2,6.58,6.58,0,0,1-.83,1.68A3.82,3.82,0,0,1,179,158.76Zm.56-5.92a6.57,6.57,0,0,0-.19-1.19c-.2-.88-.49-1.43-.89-1.64a1.26,1.26,0,0,0-1.3.09,2.72,2.72,0,0,0-1.1,1.31,4.24,4.24,0,0,0-.29,2.09c0,.22.05.49.1.82s.1.59.15.79a2.11,2.11,0,0,0,.83,1.41,1.21,1.21,0,0,0,1.3-.05,2.76,2.76,0,0,0,1.12-1.31A4.82,4.82,0,0,0,179.55,152.84Z" style="fill: rgb(69, 90, 100); transform-origin: 177.408px 155.867px;" id="el3ygr2tp07m" class="animable"></path><path d="M185.73,150.28a1.46,1.46,0,0,0,.4.91q.3.26,1-.12l.88-.52a.27.27,0,0,1,.31,0,.48.48,0,0,1,.17.34l.22,1.4a.86.86,0,0,1,0,.47.58.58,0,0,1-.25.33l-1.08.62A2.14,2.14,0,0,1,185,154a3.43,3.43,0,0,1-1.19-2.53l-.71-4.56-1,.55a.25.25,0,0,1-.3,0,.43.43,0,0,1-.18-.33l-.22-1.4a.94.94,0,0,1,.05-.47.63.63,0,0,1,.25-.33l1-.56-.53-3.46a.86.86,0,0,1,0-.47.58.58,0,0,1,.25-.33l1.11-.64a.26.26,0,0,1,.3,0,.53.53,0,0,1,.18.34l.53,3.46,1.88-1.09a.25.25,0,0,1,.3,0,.46.46,0,0,1,.18.34l.22,1.4a1,1,0,0,1-.05.47.68.68,0,0,1-.26.33L185,145.78Z" style="fill: rgb(69, 90, 100); transform-origin: 185.066px 146.829px;" id="elx5iq15sq9q9" class="animable"></path><path d="M189,146.75a11.17,11.17,0,0,1-.1-2.38,9.36,9.36,0,0,1,.43-2.24,6.7,6.7,0,0,1,.94-1.87,4.32,4.32,0,0,1,1.4-1.3,2.64,2.64,0,0,1,1.55-.42,2.3,2.3,0,0,1,1.31.51,3.74,3.74,0,0,1,1,1.3,6.75,6.75,0,0,1,.58,1.92l.15,1a1,1,0,0,1-.06.47.58.58,0,0,1-.25.33L191,146.84a1.88,1.88,0,0,0,.27.78,1.08,1.08,0,0,0,.47.41,1.06,1.06,0,0,0,.59.07,1.81,1.81,0,0,0,.65-.23,2.78,2.78,0,0,0,.73-.58,2.82,2.82,0,0,0,.43-.63,3.28,3.28,0,0,1,.22-.38,1.05,1.05,0,0,1,.27-.23l1.16-.67a.27.27,0,0,1,.31,0,.44.44,0,0,1,.18.34,3,3,0,0,1-.11.89,5.92,5.92,0,0,1-.49,1.28,7.82,7.82,0,0,1-.92,1.37,5,5,0,0,1-1.39,1.14,2.78,2.78,0,0,1-1.54.44,2.12,2.12,0,0,1-1.31-.52,3.89,3.89,0,0,1-1-1.4A8.57,8.57,0,0,1,189,146.75ZM192,141.5a2.37,2.37,0,0,0-.69.6,3.17,3.17,0,0,0-.43.76,3,3,0,0,0-.21.81,4,4,0,0,0,0,.75l3.29-1.9a5.65,5.65,0,0,0-.22-.61,1.17,1.17,0,0,0-.36-.48.91.91,0,0,0-.55-.19A1.62,1.62,0,0,0,192,141.5Z" style="fill: rgb(69, 90, 100); transform-origin: 192.579px 144.689px;" id="el5b5dden0vvu" class="animable"></path><path d="M198.87,136.14a5.15,5.15,0,0,1,.7-1.43,3.13,3.13,0,0,1,1-.92,2.14,2.14,0,0,1,1.58-.37,1.93,1.93,0,0,1,1.12.77,5.18,5.18,0,0,1,.34-1,6.65,6.65,0,0,1,.5-.92,5.45,5.45,0,0,1,.6-.72,3.45,3.45,0,0,1,.63-.5,2.31,2.31,0,0,1,1.45-.39,1.71,1.71,0,0,1,1.06.56,3.5,3.5,0,0,1,.72,1.3,11.29,11.29,0,0,1,.44,1.82l.88,5.71a.86.86,0,0,1-.05.47.58.58,0,0,1-.25.33l-1.1.64a.27.27,0,0,1-.31,0,.53.53,0,0,1-.18-.34l-.87-5.6a2.89,2.89,0,0,0-.69-1.79,1,1,0,0,0-1.15,0,2.2,2.2,0,0,0-.91,1.13,4.23,4.23,0,0,0-.14,2.18l.88,5.71a.85.85,0,0,1,0,.47.58.58,0,0,1-.25.33l-1.1.64a.27.27,0,0,1-.31,0,.53.53,0,0,1-.18-.33l-.87-5.61a2.89,2.89,0,0,0-.69-1.79,1,1,0,0,0-1.15,0,2.29,2.29,0,0,0-.93,1.17,4.47,4.47,0,0,0-.11,2.25l.87,5.6a.84.84,0,0,1-.05.47.58.58,0,0,1-.25.33l-1.1.64a.25.25,0,0,1-.31,0,.51.51,0,0,1-.18-.33l-1.53-9.89a.86.86,0,0,1,.05-.47.63.63,0,0,1,.25-.33l1.11-.64a.26.26,0,0,1,.3,0,.49.49,0,0,1,.18.34Z" style="fill: rgb(69, 90, 100); transform-origin: 203.435px 138.829px;" id="elmuma4oqrtu" class="animable"></path><path d="M214.24,125.86a2.23,2.23,0,0,1,1.38-.35,2.14,2.14,0,0,1,1.17.52,3.76,3.76,0,0,1,.9,1.22,6.32,6.32,0,0,1,.56,1.72c.05.2.09.45.13.73s.08.54.1.75a9.24,9.24,0,0,1,0,2,9.56,9.56,0,0,1-.41,2,6.58,6.58,0,0,1-.83,1.68,4,4,0,0,1-1.25,1.18,3.24,3.24,0,0,1-.83.34,2,2,0,0,1-.68,0,1.43,1.43,0,0,1-.52-.15,1.81,1.81,0,0,1-.37-.23l.08.48a.94.94,0,0,1-.06.47.58.58,0,0,1-.25.33l-1.1.64a.24.24,0,0,1-.3,0,.43.43,0,0,1-.18-.33L209.65,125a.85.85,0,0,1,0-.47.58.58,0,0,1,.25-.33l1.1-.64a.27.27,0,0,1,.31,0,.53.53,0,0,1,.18.34l.7,4.52c.06-.18.14-.37.24-.6a4.28,4.28,0,0,1,.39-.67,4,4,0,0,1,.58-.68A3.43,3.43,0,0,1,214.24,125.86Zm2.15,4.35a2.44,2.44,0,0,0-.89-1.65,1.26,1.26,0,0,0-1.3.1,2.65,2.65,0,0,0-1.11,1.33,4.45,4.45,0,0,0-.29,2.06c0,.23,0,.5.1.83a6.37,6.37,0,0,0,.16.79,2,2,0,0,0,.83,1.43,1.2,1.2,0,0,0,1.29-.08,2.73,2.73,0,0,0,1.12-1.3,4.7,4.7,0,0,0,.27-2.32A7.58,7.58,0,0,0,216.39,130.21Z" style="fill: rgb(69, 90, 100); transform-origin: 214.076px 131.377px;" id="elev9fe5wkrr6" class="animable"></path><path d="M219.66,129a11.14,11.14,0,0,1-.1-2.38,9.36,9.36,0,0,1,.43-2.24,6.84,6.84,0,0,1,.94-1.87,4.36,4.36,0,0,1,1.41-1.3,2.67,2.67,0,0,1,1.54-.42,2.34,2.34,0,0,1,1.31.51,3.78,3.78,0,0,1,1,1.31,6.45,6.45,0,0,1,.58,1.92l.15,1a1,1,0,0,1-.06.47.58.58,0,0,1-.25.33l-4.85,2.81a1.88,1.88,0,0,0,.27.78,1.07,1.07,0,0,0,.47.41,1,1,0,0,0,.6.08,2.09,2.09,0,0,0,.64-.24,2.78,2.78,0,0,0,.73-.58,2.67,2.67,0,0,0,.43-.62,2,2,0,0,1,.23-.39,1,1,0,0,1,.26-.22l1.17-.68a.26.26,0,0,1,.3,0,.43.43,0,0,1,.18.34,3,3,0,0,1-.11.89,5.73,5.73,0,0,1-.49,1.28,7.47,7.47,0,0,1-.92,1.37,5.35,5.35,0,0,1-1.38,1.15,2.92,2.92,0,0,1-1.55.44,2.08,2.08,0,0,1-1.3-.53,3.82,3.82,0,0,1-1-1.4A8.45,8.45,0,0,1,219.66,129Zm3.07-5.24a2.35,2.35,0,0,0-.69.59,3.37,3.37,0,0,0-.43.76,3,3,0,0,0-.21.82,3.94,3.94,0,0,0,0,.75l3.29-1.91a4.76,4.76,0,0,0-.21-.6,1.23,1.23,0,0,0-.36-.49,1,1,0,0,0-.56-.19A1.68,1.68,0,0,0,222.73,123.72Z" style="fill: rgb(69, 90, 100); transform-origin: 223.289px 126.969px;" id="ellq6wtd6nsud" class="animable"></path><path d="M231.46,118.89a2.58,2.58,0,0,0-1.17,1.29,4.12,4.12,0,0,0-.1,2.06l.86,5.52a1,1,0,0,1-.06.47.58.58,0,0,1-.25.33l-1.1.64a.27.27,0,0,1-.31,0,.53.53,0,0,1-.18-.34L227.62,119a.88.88,0,0,1,0-.48.72.72,0,0,1,.25-.33l1.11-.64a.27.27,0,0,1,.3,0,.46.46,0,0,1,.18.34l.08.49a5.43,5.43,0,0,1,.68-1.25,3.57,3.57,0,0,1,1.08-.93l.66-.38a.25.25,0,0,1,.3,0,.45.45,0,0,1,.18.33l.22,1.4a.94.94,0,0,1-.06.47.58.58,0,0,1-.25.33Z" style="fill: rgb(69, 90, 100); transform-origin: 230.127px 122.509px;" id="elbg2vobxqtt7" class="animable"></path></g></g><g id="freepik--Ladder--inject-132" class="animable" style="transform-origin: 403.582px 249.04px;"><g id="freepik--ladder--inject-132" class="animable" style="transform-origin: 403.582px 249.04px;"><path d="M420.62,175.61,381.24,282.78h0a1.43,1.43,0,0,1-.69.75c-1,.57-3.24-.16-2.56-1.5l39.48-107.77a2.54,2.54,0,0,1,3.26-1.51C422,173.25,421.1,174.29,420.62,175.61Z" style="fill: rgb(55, 71, 79); transform-origin: 399.622px 228.16px;" id="el1vaf3a3v4mj" class="animable"></path><polygon points="407.66 273.12 368.18 250.32 368.88 247.17 408.37 269.97 407.66 273.12" style="fill: rgb(38, 50, 56); transform-origin: 388.275px 260.145px;" id="eluiu04ogym4" class="animable"></polygon><path d="M392.38,191.36,353,298.53v0a1.42,1.42,0,0,1-.69.74c-1,.57-3.24-.16-2.56-1.5L389.23,190a2.55,2.55,0,0,1,3.26-1.51C393.81,189,392.87,190,392.38,191.36Z" style="fill: rgb(55, 71, 79); transform-origin: 371.394px 243.901px;" id="el2j7m2xdfhj3" class="animable"></path><polygon points="436.38 256.54 396.89 233.74 397.6 230.59 437.09 253.39 436.38 256.54" style="fill: rgb(38, 50, 56); transform-origin: 416.99px 243.565px;" id="ele1qrsi9135j" class="animable"></polygon><path d="M454.16,324.43a.86.86,0,0,1-.48.51,3.35,3.35,0,0,1-3,0,1,1,0,0,1-.49-.57L415.23,161.22c-.07-.29-.24-.82-.63-1a.74.74,0,0,0-.32-.07,1.81,1.81,0,0,0-.85.27L392.37,172.6l-2-3.48L411.43,157a5.71,5.71,0,0,1,2.85-.79,4.68,4.68,0,0,1,2,.41,5.25,5.25,0,0,1,2.92,3.81l35,163.57a1.82,1.82,0,0,1,0,.3A1.16,1.16,0,0,1,454.16,324.43Z" style="fill: rgb(69, 90, 100); transform-origin: 422.288px 240.752px;" id="eldrt4jtrmvoa" class="animable"></path><path d="M424.47,325l-12.83-7.4a1.71,1.71,0,0,1-.76-1.33v-.31a1.69,1.69,0,0,1,.76-1.32l30.78-17.77a1.72,1.72,0,0,1,1.53,0l12.83,7.41a1.67,1.67,0,0,1,.76,1.32v.31a1.67,1.67,0,0,1-.76,1.32L426,325A1.65,1.65,0,0,1,424.47,325Z" style="fill: #00A5FF; transform-origin: 434.21px 310.939px;" id="el159zqsyv1z3" class="animable"></path><g id="elnq7v6ps1s79"><path d="M411.1,315.17a1.54,1.54,0,0,0-.22.75v.31a1.71,1.71,0,0,0,.76,1.33l12.83,7.4a1.6,1.6,0,0,0,.77.19v-1.82Z" style="opacity: 0.1; transform-origin: 418.06px 320.16px;" class="animable" id="elb5ykr0xg3t5"></path></g><g id="elgqq7e59hmxq"><path d="M425.24,323.33v1.82A1.59,1.59,0,0,0,426,325l15.39-8.88,15.39-8.89a1.67,1.67,0,0,0,.76-1.32v-.31a1.54,1.54,0,0,0-.22-.75Z" style="opacity: 0.15; transform-origin: 441.39px 315.001px;" class="animable" id="eltu17hx1354h"></path></g><path d="M418.91,299l-12.83-7.4a1.71,1.71,0,0,1-.76-1.33v-.3a1.69,1.69,0,0,1,.76-1.33l30.78-17.77a1.72,1.72,0,0,1,1.53,0l12.83,7.41a1.69,1.69,0,0,1,.76,1.32v.31a1.67,1.67,0,0,1-.76,1.32L420.44,299A1.65,1.65,0,0,1,418.91,299Z" style="fill: #00A5FF; transform-origin: 428.65px 284.939px;" id="elh6sz95cyn3o" class="animable"></path><g id="elxy6pwh49pm"><path d="M405.54,289.16a1.54,1.54,0,0,0-.22.76v.3a1.71,1.71,0,0,0,.76,1.33l12.83,7.4a1.49,1.49,0,0,0,.77.19v-1.82Z" style="opacity: 0.1; transform-origin: 412.5px 294.15px;" class="animable" id="elhhv29onx0yt"></path></g><g id="elx9hwaojdif"><path d="M419.68,297.32v1.82a1.48,1.48,0,0,0,.76-.19l15.39-8.88,15.39-8.89a1.67,1.67,0,0,0,.76-1.32v-.31a1.54,1.54,0,0,0-.22-.75Z" style="opacity: 0.15; transform-origin: 435.83px 288.97px;" class="animable" id="elhxtzln1z7rg"></path></g><path d="M413.35,272.94l-12.83-7.4a1.72,1.72,0,0,1-.77-1.33v-.3a1.7,1.7,0,0,1,.77-1.33l30.78-17.77a1.72,1.72,0,0,1,1.53,0l12.82,7.41a1.67,1.67,0,0,1,.77,1.32v.31a1.69,1.69,0,0,1-.77,1.33l-30.77,17.76A1.65,1.65,0,0,1,413.35,272.94Z" style="fill: #00A5FF; transform-origin: 423.085px 258.879px;" id="elwzteuxb3rr" class="animable"></path><g id="elnturhjkzc8b"><path d="M400,263.15a1.56,1.56,0,0,0-.23.76v.3a1.72,1.72,0,0,0,.77,1.33l6.41,3.7,6.42,3.7a1.48,1.48,0,0,0,.76.19v-1.82Z" style="opacity: 0.1; transform-origin: 406.95px 268.14px;" class="animable" id="elrmcef104bjl"></path></g><g id="elacywse3z8ys"><path d="M414.11,271.31v1.82a1.49,1.49,0,0,0,.77-.19l15.39-8.88,15.38-8.88a1.69,1.69,0,0,0,.77-1.33v-.31a1.65,1.65,0,0,0-.22-.75Z" style="opacity: 0.15; transform-origin: 430.265px 262.96px;" class="animable" id="eloym2jb7i8jp"></path></g><path d="M407.79,246.93,395,239.53a1.69,1.69,0,0,1-.77-1.33v-.3a1.69,1.69,0,0,1,.77-1.33l30.77-17.77a1.72,1.72,0,0,1,1.53,0l12.83,7.41a1.67,1.67,0,0,1,.77,1.32v.31a1.69,1.69,0,0,1-.77,1.33l-30.77,17.76A1.65,1.65,0,0,1,407.79,246.93Z" style="fill: #00A5FF; transform-origin: 417.565px 232.875px;" id="elcgd4j4iw6eq" class="animable"></path><g id="el97g45daf5lh"><path d="M408.55,245.3v1.82a1.52,1.52,0,0,0,.77-.19l15.38-8.88,15.39-8.88a1.69,1.69,0,0,0,.77-1.33v-.31a1.56,1.56,0,0,0-.23-.75Z" style="opacity: 0.15; transform-origin: 424.705px 236.95px;" class="animable" id="elx5rnadde7ff"></path></g><g id="el97tmi58fjdp"><path d="M394.42,237.14a1.56,1.56,0,0,0-.23.76v.3a1.69,1.69,0,0,0,.77,1.33l12.83,7.4a1.45,1.45,0,0,0,.76.19V245.3Z" style="opacity: 0.1; transform-origin: 401.37px 242.13px;" class="animable" id="elbgx0s5p1h86"></path></g><path d="M402.22,220.93l-21.31-12.31a1.68,1.68,0,0,1-.77-1.33V207a1.69,1.69,0,0,1,.77-1.33l30.77-17.77a1.72,1.72,0,0,1,1.53,0l21.32,12.31a1.7,1.7,0,0,1,.77,1.33v.3a1.72,1.72,0,0,1-.77,1.33l-30.78,17.77A1.72,1.72,0,0,1,402.22,220.93Z" style="fill: #00A5FF; transform-origin: 407.72px 204.418px;" id="el0vdsa12eb7g9" class="animable"></path><g id="eliehkxk8nvxf"><path d="M403,219.29v1.82a1.55,1.55,0,0,0,.76-.18L419.14,212l15.39-8.88a1.72,1.72,0,0,0,.77-1.33v-.3a1.56,1.56,0,0,0-.23-.76Z" style="opacity: 0.15; transform-origin: 419.15px 210.92px;" class="animable" id="elaf74tpvf8x5"></path></g><g id="ele9a0g6g8rj"><path d="M380.36,206.24a1.65,1.65,0,0,0-.22.75v.3a1.68,1.68,0,0,0,.77,1.33l21.31,12.31a1.59,1.59,0,0,0,.77.18v-1.82Z" style="opacity: 0.1; transform-origin: 391.565px 213.675px;" class="animable" id="el4k7la0w8xkj"></path></g><path d="M425.44,341c0,.16-.2.35-.47.51a3.41,3.41,0,0,1-3.05,0,1.12,1.12,0,0,1-.43-.4l-.05-.15,0-.07L386.51,177.82a8.5,8.5,0,0,1,3.86-8.7l2,3.48a4.48,4.48,0,0,0-1.94,4.37l35,163.58a7.72,7.72,0,0,1,0,.46Z" style="fill: rgb(69, 90, 100); transform-origin: 405.909px 255.495px;" id="elwzadpbn34sr" class="animable"></path></g></g><g id="freepik--wine-bottle--inject-132" class="animable" style="transform-origin: 58.48px 274.933px;"><g id="freepik--Wine--inject-132" class="animable" style="transform-origin: 58.48px 274.933px;"><path d="M66.07,230.22v-30l-7.59.32-7.59-.32v30c-.19,6.18-16.74,6.47-17.13,30.48v89.51c0,5.48,11.29,9.33,24.72,9.33s24.72-3.85,24.72-9.33V260.7C82.82,236.69,66.26,236.4,66.07,230.22Z" style="fill: #00A5FF; transform-origin: 58.48px 279.88px;" id="elilrmfde01j" class="animable"></path><g id="eliydituihntc"><path d="M66.07,230.22v-30l-7.59.32-7.59-.32v30c-.19,6.18-16.74,6.47-17.13,30.48v89.51c0,5.48,11.29,9.33,24.72,9.33s24.72-3.85,24.72-9.33V260.7C82.82,236.69,66.26,236.4,66.07,230.22Z" style="opacity: 0.4; transform-origin: 58.48px 279.88px;" class="animable" id="elys0f0urgmn"></path></g><path d="M58.48,284.56a57.86,57.86,0,0,1-14.59-1.73v48.88a57.86,57.86,0,0,0,14.59,1.73c13.43,0,24.72-3.85,24.72-9.34V275.22C83.2,280.71,71.91,284.56,58.48,284.56Z" style="fill: rgb(250, 250, 250); transform-origin: 63.545px 304.331px;" id="elfz4gkc1uiat" class="animable"></path><path d="M50.88,205.11c0-2.54,15.25-2.31,15.21.23V194.17c0-5.24-15.21-4.82-15.21-.57Z" style="fill: rgb(55, 71, 79); transform-origin: 58.485px 197.833px;" id="elfwvi3cajnfu" class="animable"></path></g></g><g id="freepik--glass-of-wine--inject-132" class="animable" style="transform-origin: 99.8608px 313.84px;"><g id="freepik--glass-of-wine--inject-132" class="animable" style="transform-origin: 99.8608px 313.84px;"><path d="M99.65,309.65a1.84,1.84,0,0,0-1.82,1.83L98,352.43a3.81,3.81,0,0,1-3.26,3.76c-4,.61-6.82,1.93-6.81,3.85,0,2.66,5.36,4.78,11.93,4.74s11.89-2.23,11.87-4.89c0-1.92-2.76-3.21-6.76-3.77a3.81,3.81,0,0,1-3.32-3.73l-.16-40.92A1.83,1.83,0,0,0,99.65,309.65Z" style="fill: #00A5FF; transform-origin: 99.83px 337.215px;" id="eloayavm0jq4h" class="animable"></path><g id="elf0tf9rfpbti"><path d="M99.65,309.65a1.84,1.84,0,0,0-1.82,1.83L98,352.43a3.81,3.81,0,0,1-3.26,3.76c-4,.61-6.82,1.93-6.81,3.85,0,2.66,5.36,4.78,11.93,4.74s11.89-2.23,11.87-4.89c0-1.92-2.76-3.21-6.76-3.77a3.81,3.81,0,0,1-3.32-3.73l-.16-40.92A1.83,1.83,0,0,0,99.65,309.65Z" style="opacity: 0.2; transform-origin: 99.83px 337.215px;" class="animable" id="elvatybvnn5b"></path></g><path d="M114.3,268.52c-1.07-3.17-6.79-5.62-14.44-5.62-7.81,0-13.33,2.28-14.4,5.7s-5.32,22.49-5.26,31.47c0,6.76,5,18.24,19.61,18.24s19.63-11.37,19.71-18.13C119.63,291.15,115.47,271.74,114.3,268.52Z" style="fill: #00A5FF; transform-origin: 99.8608px 290.605px;" id="elv9byjrk1qmm" class="animable"></path><g id="elu79e5nhqobi"><path d="M114.3,268.52c-1.07-3.17-6.79-5.62-14.44-5.62-7.81,0-13.33,2.28-14.4,5.7s-5.32,22.49-5.26,31.47c0,6.76,5,18.24,19.61,18.24s19.63-11.37,19.71-18.13C119.63,291.15,115.47,271.74,114.3,268.52Z" style="opacity: 0.1; transform-origin: 99.8608px 290.605px;" class="animable" id="elkamnq5tmbsh"></path></g><path d="M115.94,285.67a2.21,2.21,0,0,0-.15-.5c-.55-3.4-7.46-6.1-15.93-6.1s-15.48,2.74-15.94,6.17a2.3,2.3,0,0,0-.1.35c-.42,2.45-.69,12.22-.67,14.46,0,2.59,3,15.54,16.66,15.54s16.73-12.86,16.76-15.44C116.6,297.91,116.35,288.12,115.94,285.67Z" style="fill: rgb(55, 71, 79); transform-origin: 99.8607px 297.33px;" id="elumjv70i5if" class="animable"></path><path d="M115.84,285.61c0,3.6-7.16,6.53-16,6.53s-16-2.93-16-6.53,7.15-6.54,16-6.54S115.84,282,115.84,285.61Z" style="fill: rgb(69, 90, 100); transform-origin: 99.84px 285.605px;" id="elemfse4ahtlq" class="animable"></path><g id="elchgzdwcxqc"><path d="M112.91,269.39c0,2.94-5.84,5.33-13,5.33s-13-2.39-13-5.33,5.84-5.34,13-5.34S112.91,266.44,112.91,269.39Z" style="opacity: 0.15; transform-origin: 99.91px 269.385px;" class="animable" id="elrdh8m1cp62e"></path></g></g></g><g id="freepik--Characters--inject-132" class="animable" style="transform-origin: 326.405px 275.829px;"><path id="freepik--Tie--inject-132" d="M468.62,160.61c.15-3.6,1.41-7.06,1.13-10.69-.19-2.46-.64-5.83-3.21-6.94a.24.24,0,0,0-.35.17c-.05.21.15.32.28.42,1.91,1.55,2.11,4.45,2.22,6.74.17,3.55-1.16,6.94-1.26,10.46s.71,7,1.35,10.52a29.38,29.38,0,0,1,.64,5.44,25,25,0,0,1-.56,4.65c-.72,3.57-1.63,7.17-1,10.82,0,.2.29.3.28,0-.17-3.49.93-6.81,1.67-10.17a27.66,27.66,0,0,0,.73-4.94,26,26,0,0,0-.49-5.28C469.4,168.12,468.46,164.41,468.62,160.61Z" style="fill: rgb(69, 90, 100); transform-origin: 468.362px 167.67px;" class="animable"></path><g id="freepik--Character--inject-132" class="animable" style="transform-origin: 432.866px 195.368px;"><path d="M427.5,145.25c-3.9-.62-6.42,1-7.79,7.19-1.19,5.31-2.19,17.32-2.19,17.32s-13.75-6.3-16.87-7-4.91-.76-7.29,1.33c-2.1,1.85-2.86,2.1-2.38,4.26l1.5-.91s2.34-1,3.32.54a2.87,2.87,0,0,1,.18,3.34l-.73.43a2.48,2.48,0,0,0,2.78.86c1.94-.48,2.16-1.19,3.52-1.53,1.52-.37,11.76,5.4,15.68,7.19,4.41,2,6.48,1.95,7.62-2.39,1.23-4.7,4.14-20.56,4.14-20.56Z" style="fill: rgb(255, 189, 167); transform-origin: 409.916px 162.335px;" id="eltefuxshjgs" class="animable"></path><path d="M436.14,232.72c1.32,14.53,1.8,18.86,2.79,28a27.47,27.47,0,0,1,.39,2.83c.09.93,7.42,1.21,7.35.06,0,0-.08-1-.11-2-.06-4.52,2.14-13.3,2.48-21.16.26-5.93-1-8.86-1.77-11.85,0,0,1.88-17.6,2.35-34.52a30.22,30.22,0,0,0-5.25-18.19l-13.91,2.4S432,198.82,433.6,215C434.06,219.58,435.53,229.18,436.14,232.72Z" style="fill: rgb(255, 189, 167); transform-origin: 440.051px 220.128px;" id="elaz0zz9cmf9i" class="animable"></path><path d="M423.33,181.17c-1.74,3.44-11.24,19.59-14.34,30.26-.74,2.56-1.37,4.82,2.54,12.69,1.92,3.87,4,7.77,5,10,2.66,5.7,4.1,8.29,6,12.73a30.28,30.28,0,0,1,1.38,5.19c3.06,2,7.06-1.39,7.06-1.39s-.61-3.46-1-5.16c-1.29-5.87-1.45-20.13-8.79-27.53,4.43-7.29,20.58-28.13,23.43-40.87Z" style="fill: rgb(255, 189, 167); transform-origin: 426.523px 214.881px;" id="elnj166bf34tp" class="animable"></path><path d="M437.07,242.69c2.29,1.46,6.26,1.27,7.87,1.16a9,9,0,0,0,3.94-1c.07-.79.12-1.58.16-2.36.26-5.93-1-8.86-1.77-11.85,0,0,2-16.07,2.47-33,.17-5.85.6-13.76-3.47-19.72l-23.88,4.67c-1.73,3.43-10.3,20.21-13.4,30.88-.74,2.56-1.37,4.82,2.54,12.69,1.56,3.15,3.19,6.3,4.29,8.54l.21,0a16.15,16.15,0,0,0,1.84,0,15.76,15.76,0,0,0,3.41-.49,16.77,16.77,0,0,0,3.35-1.28,26.58,26.58,0,0,0,2.48-1.57c-1.17-4.27-3-8.45-6-11.47,2.05-3.37,6.59-9.62,11.17-16.63.4,4.57.83,9.32,1.28,13.75s1.93,14.14,2.54,17.68C436.45,236.15,436.83,240.2,437.07,242.69Z" style="fill: rgb(55, 71, 79); transform-origin: 429.139px 209.922px;" id="el0nws4x580c0p" class="animable"></path><path d="M432.32,201.29V196s-4.71-2.36-6.33-4.82c0,0,.57,3.2,4.7,5.83l.41,3.7-8.24,14.55C426.63,209.76,430.29,204.41,432.32,201.29Z" style="fill: rgb(38, 50, 56); transform-origin: 427.59px 203.22px;" id="elfj60wt8jm3e" class="animable"></path><path d="M448.73,268.73a7.26,7.26,0,0,1,0,1.65c-.24.53-.89.68-1.61,1.52-1.09,1.28-.89,3.53-1.33,5.58a5.47,5.47,0,0,1-3.41,3.93,12.93,12.93,0,0,1-7.62.64c-3.17-.64-3.39-2.52-3.39-2.52s-.14-1.76.66-2S448.73,268.73,448.73,268.73Z" style="fill: rgb(38, 50, 56); transform-origin: 440.069px 275.541px;" id="el8w2iblg9u9f" class="animable"></path><path d="M448.73,268.73a4.94,4.94,0,0,1-.92,1,8.28,8.28,0,0,0-1,1.05,6.7,6.7,0,0,0-1.34,2.71c-.16.76-.16,1.54-.3,2.3a6.67,6.67,0,0,1-1.77,3.44,6.21,6.21,0,0,1-3.55,1.6c-4.18.74-7.32-.64-8.07-1.84s.05-2.37,2.63-4a6.22,6.22,0,0,0,2.22-1.83,12,12,0,0,0,1.31-9.58,1.77,1.77,0,0,1,.16-1.67,2.12,2.12,0,0,1,.77-.51,7,7,0,0,1,4.87-.18.82.82,0,0,1,.26.14.75.75,0,0,1,.13.42,1.91,1.91,0,0,0,.85,1.32.18.18,0,0,0,.1,0,.23.23,0,0,0,.1-.07,5,5,0,0,0,.59-.78,1.44,1.44,0,0,1,.34-.43.94.94,0,0,1,.92-.13,4.31,4.31,0,0,0,.66,2.66c.17.31.45,1,.61,1.31A4.25,4.25,0,0,1,448.73,268.73Z" style="fill: #00A5FF; transform-origin: 440.179px 270.953px;" id="elyih133z12w" class="animable"></path><g id="elmf9jvaftplq"><path d="M448.73,268.73a4.94,4.94,0,0,1-.92,1,8.28,8.28,0,0,0-1,1.05,6.7,6.7,0,0,0-1.34,2.71c-.16.76-.16,1.54-.3,2.3a6.67,6.67,0,0,1-1.77,3.44,6.21,6.21,0,0,1-3.55,1.6c-4.18.74-7.32-.64-8.07-1.84s.05-2.37,2.63-4a6.22,6.22,0,0,0,2.22-1.83,12,12,0,0,0,1.31-9.58,1.77,1.77,0,0,1,.16-1.67,2.12,2.12,0,0,1,.77-.51,7,7,0,0,1,4.87-.18.82.82,0,0,1,.26.14.75.75,0,0,1,.13.42,1.91,1.91,0,0,0,.85,1.32.18.18,0,0,0,.1,0,.23.23,0,0,0,.1-.07,5,5,0,0,0,.59-.78,1.44,1.44,0,0,1,.34-.43.94.94,0,0,1,.92-.13,4.31,4.31,0,0,0,.66,2.66c.17.31.45,1,.61,1.31A4.25,4.25,0,0,1,448.73,268.73Z" style="opacity: 0.4; transform-origin: 440.179px 270.953px;" class="animable" id="eld9ow9jog9wu"></path></g><path d="M442.57,279.84a5.3,5.3,0,0,0-3-4.58c-3.11-1.67-5-.67-6,0-1.16.8-2.83,2.48-1.86,3.75s2.75,2.05,5.95,2.15A7.64,7.64,0,0,0,442.57,279.84Z" style="fill: rgb(250, 250, 250); transform-origin: 436.995px 277.764px;" id="el2u2fhrnv56f" class="animable"></path><path d="M432.43,254.89a2,2,0,0,1,.15,1.37c-.25.53-1.31,1.24-3.62,2.41a6.51,6.51,0,0,0-2.45,2.62,9.31,9.31,0,0,1-4.31,3.65,12.93,12.93,0,0,1-7.62.64c-3.17-.64-3.39-2.52-3.39-2.52s-.13-1.76.66-2S432.43,254.89,432.43,254.89Z" style="fill: rgb(38, 50, 56); transform-origin: 421.91px 260.386px;" id="eli2qxfc80sp" class="animable"></path><path d="M431.38,249.46c-.21,1.91,1.08,3.53,1.05,5.43-.91,2.2-4.34,2.48-5.65,4.23s-2.89,4.45-7.07,5.2-7.32-.64-8.06-1.84,0-2.37,2.62-4,6.85-6,6.86-6a10.78,10.78,0,0,0,1-1.47,3.68,3.68,0,0,0,.13-2.57,6,6,0,0,1,3.13-.4c.48.15,1,.32,1.43.5a2.26,2.26,0,0,1,.89.51,3.58,3.58,0,0,1,.45,1.08.94.94,0,0,0,.2.35.73.73,0,0,0,.52.13,1.65,1.65,0,0,0,1-.45c.36-.36.58-.9,1.05-1.07.15-.06.34-.05.41.08A.39.39,0,0,1,431.38,249.46Z" style="fill: #00A5FF; transform-origin: 421.904px 256.257px;" id="el2v0f2q89cin" class="animable"></path><g id="el2l7rk7gbv3r"><path d="M431.38,249.46c-.21,1.91,1.08,3.53,1.05,5.43-.91,2.2-4.34,2.48-5.65,4.23s-2.89,4.45-7.07,5.2-7.32-.64-8.06-1.84,0-2.37,2.62-4,6.85-6,6.86-6a10.78,10.78,0,0,0,1-1.47,3.68,3.68,0,0,0,.13-2.57,6,6,0,0,1,3.13-.4c.48.15,1,.32,1.43.5a2.26,2.26,0,0,1,.89.51,3.58,3.58,0,0,1,.45,1.08.94.94,0,0,0,.2.35.73.73,0,0,0,.52.13,1.65,1.65,0,0,0,1-.45c.36-.36.58-.9,1.05-1.07.15-.06.34-.05.41.08A.39.39,0,0,1,431.38,249.46Z" style="opacity: 0.4; transform-origin: 421.904px 256.257px;" class="animable" id="el1lbfwgervdd"></path></g><path d="M422.43,263.38a5.31,5.31,0,0,0-3-4.59c-3.11-1.66-5-.67-6,0-1.16.8-2.83,2.49-1.86,3.75s2.75,2.05,6,2.15A7.65,7.65,0,0,0,422.43,263.38Z" style="fill: rgb(250, 250, 250); transform-origin: 416.854px 261.295px;" id="elvohh26obfg9" class="animable"></path><path d="M447.91,162.78c-5-2.64-6.3-11.9-5.68-16.41l-2.68-.28-12.05-.84a101.19,101.19,0,0,0-5.82,9.15,10,10,0,0,0,1.63,11.25l.53,6.95s-.85,4.45-1.8,8.64c2.44,5,14.63,9.12,27.36,2.19-.72-4.7-1.76-7.35-3.76-12C445.64,171.46,446.46,168.44,447.91,162.78Z" style="fill: rgb(245, 245, 245); transform-origin: 435.019px 166.176px;" id="elps4iiqwdidl" class="animable"></path><path d="M474.89,144.85c0-6.79-1.93-8.67-4.69-9.61-4.41-1.49-4.88.18-3.63,3.61a16.5,16.5,0,0,1,1,4.44,8.32,8.32,0,0,0-1.52-1.68,1.59,1.59,0,0,0-2.17,0c-.23.26.47.77,1.05,2,.74,1.63.5,2.59,1.27,4.37.28.67.79,1.28.66,2a88.12,88.12,0,0,1-3,11.21c-2.45-2-7.77-6.34-9.86-8.14a70.73,70.73,0,0,0-6.82-5.56,10.15,10.15,0,0,0-5-1.17c-.75,3.22-1.23,8.95,1,12.4,1.1,1.73,2.87,4.1,4.73,4.07l.39-1.46,7.8,5.34s1.64,1.15,5.65,3.44,6.55,2.29,8,1c1-.87,1.84-3.24,2.79-8.95h0c.51-2.79,1-6,1.56-9.34A66.07,66.07,0,0,0,474.89,144.85Z" style="fill: rgb(255, 189, 167); transform-origin: 458.222px 153.336px;" id="el0fok6tr43u7r" class="animable"></path><polygon points="448.29 161.38 445.17 159.02 448.04 162.34 448.29 161.38" style="fill: rgb(240, 153, 122); transform-origin: 446.73px 160.68px;" id="elxh9eu2sdqyj" class="animable"></polygon><path d="M433.24,140.61h0a13.21,13.21,0,0,0,13.22-13.21v-.86a12.24,12.24,0,0,0-12.23-12.23h-2A12.23,12.23,0,0,0,420,126.54v.86A13.21,13.21,0,0,0,433.24,140.61Z" style="fill: rgb(38, 50, 56); transform-origin: 433.23px 127.46px;" id="el4khn008bnfb" class="animable"></path><path d="M448.54,118.23c-1.57,2.71-5.71,3.25-9.24,1.21s-5.14-5.9-3.58-8.61,5.71-3.25,9.24-1.21S450.1,115.52,448.54,118.23Z" style="fill: rgb(38, 50, 56); transform-origin: 442.13px 114.53px;" id="elpb750t8qhtl" class="animable"></path><path d="M424.68,120.54c-1.39,1.27-3.13,4-3,12.13.12,6.86,2.24,8.56,3.31,9.06s3.14.2,5.15-.13v4.94s-2.3,2.39-1.42,4.84c.64,1.79,4.08,1.15,6.67-.7,3.09-2.22,3.44-3.88,3.44-3.88l.09-10.2s1.17,1.2,3.19-.62c1.66-1.49,2.23-4,.95-5.4a2.83,2.83,0,0,0-4.59.92,20.54,20.54,0,0,1-8.33-2.5C426.11,126.74,425.12,123.16,424.68,120.54Z" style="fill: rgb(255, 189, 167); transform-origin: 432.716px 136.49px;" id="elpweqd2o3otg" class="animable"></path><path d="M424.53,130.65a.84.84,0,0,1-.78.9.85.85,0,0,1-.87-.82.83.83,0,1,1,1.65-.08Z" style="fill: rgb(38, 50, 56); transform-origin: 423.702px 130.664px;" id="el9ni1ewx1295" class="animable"></path><path d="M431.1,130.65a.84.84,0,0,1-.78.9.86.86,0,1,1,.78-.9Z" style="fill: rgb(38, 50, 56); transform-origin: 430.242px 130.694px;" id="elr6ggvy0tyhm" class="animable"></path><path d="M430.1,136.5l-2.27.74a1.16,1.16,0,0,0,1.47.86A1.3,1.3,0,0,0,430.1,136.5Z" style="fill: rgb(240, 153, 122); transform-origin: 428.993px 137.325px;" id="el7ub17059jmt" class="animable"></path><path d="M422.55,128.1l1.68-1.2a1,1,0,0,0-1.39-.31A1.16,1.16,0,0,0,422.55,128.1Z" style="fill: rgb(38, 50, 56); transform-origin: 423.309px 127.265px;" id="elamvytqi2jca" class="animable"></path><path d="M438.46,130.69l0,2.9a1.36,1.36,0,0,1-1.42-1.38A1.51,1.51,0,0,1,438.46,130.69Z" style="fill: rgb(38, 50, 56); transform-origin: 437.75px 132.141px;" id="ellicqh1m0ytf" class="animable"></path><polygon points="427 129.83 427.02 135.45 424.4 134.59 427 129.83" style="fill: rgb(240, 153, 122); transform-origin: 425.71px 132.64px;" id="eluii5q2kr9p" class="animable"></polygon><path d="M430.15,141.6c2.12-.28,6.49-1.56,7.17-3.35a4.67,4.67,0,0,1-1.54,2.28c-1.3,1.15-5.62,2.45-5.62,2.45Z" style="fill: rgb(240, 153, 122); transform-origin: 433.735px 140.615px;" id="elbzkz2muzztt" class="animable"></path></g><g id="freepik--characters--inject-132" class="animable" style="transform-origin: 218.959px 348.388px;"><path d="M259.82,291.58c.52-2.41,0-6.6-2.95-7.26a1.11,1.11,0,0,0-.6,0,1.34,1.34,0,0,0-.65.75c-1,2.11-1.35,4.66-2.9,6.78l-.72,0c-.33.39-.77.48-.79-.06a5.2,5.2,0,0,1,.3-1.45c.25-.89.67-2,.13-2.86a.77.77,0,0,0-1.32-.08,38.25,38.25,0,0,0-2.85,4.56c-.78,1.55-.92,2.55-1.95,3.95-1.7,2.3-3.46,3.65-6.8,5.95s-11.15,6.41-10.92,6.29l-.61-2.42-8.32,2.6s1.65,10.17,3.58,11c1.5,1.66,5.31.54,11.43-3.26,3.58-2.22,6-4.17,10.73-7.63,2.75-2,5.47-4.23,8-6.5a29.22,29.22,0,0,0,4.14-4.48,15.47,15.47,0,0,0,3-5.93Z" style="fill: rgb(255, 168, 167); transform-origin: 239.434px 302.177px;" id="elwm61eb0ymld" class="animable"></path><path d="M212.77,284.92s4.95-.76,8.12,2.05S228,307.2,228,307.2s-6,5.13-11.18,3.66S212.77,284.92,212.77,284.92Z" style="fill: #00A5FF; transform-origin: 220.333px 297.976px;" id="elnrp7f80igm" class="animable"></path><g id="ellj1a260pjx"><path d="M212.77,284.92s4.95-.76,8.12,2.05S228,307.2,228,307.2s-6,5.13-11.18,3.66S212.77,284.92,212.77,284.92Z" style="opacity: 0.3; transform-origin: 220.333px 297.976px;" class="animable" id="el4vzx5kbtnuc"></path></g><polygon points="190.12 425.12 197.51 425.12 198.49 412.03 190.12 413.34 190.12 425.12" style="fill: rgb(255, 168, 167); transform-origin: 194.305px 418.575px;" id="el9ur0fvc2fdc" class="animable"></polygon><polygon points="215.69 417.79 223.79 418.07 223.92 404.16 214.52 403.61 215.69 417.79" style="fill: rgb(255, 168, 167); transform-origin: 219.22px 410.84px;" id="elnb9qa4cpm5" class="animable"></polygon><path d="M190.12,332.4c-.93,8.59.41,43.46.41,43.46-.15,1.8-1.89,5-2,11.5-.2,9.41,1.61,30.89,1.61,30.89a11.51,11.51,0,0,0,7.95-.2s4.15-30.32,5.32-39.64c1-8.13,4-29.41,4-29.41l4.43,27.64a45.73,45.73,0,0,0-.37,10c.31,4.31,3.57,24.8,3.57,24.8a15.61,15.61,0,0,0,9,0s.45-32.37.52-36.32c.09-4.51-1.06-43.56-1.06-43.56Z" style="fill: rgb(69, 90, 100); transform-origin: 206.54px 375.211px;" id="el6044uwq4lte" class="animable"></path><path d="M207.35,349a29.06,29.06,0,0,0,9.74-5.67s-1.76,3.3-7,6.37l1.25,24.23Z" style="fill: rgb(55, 71, 79); transform-origin: 212.22px 358.63px;" id="el573zxgdqw29" class="animable"></path><path d="M206.49,438.87a3.45,3.45,0,0,1-.1,2.25c-.29.46-2,1.89-5,2.1s-5.48-.18-7.18-1.26a5,5,0,0,1-2.69-3.92c-.16-1.65,0-3.24-.76-4.51s-1.88-2.49-2.13-3.13a6.41,6.41,0,0,1,0-3.36Z" style="fill: rgb(55, 71, 79); transform-origin: 197.519px 435.157px;" id="elx4m850qabm" class="animable"></path><path d="M198.56,424.47a6.11,6.11,0,0,0,.34,1.84,16.71,16.71,0,0,0,1.77,3.63,14.54,14.54,0,0,0,1.21,1.7c.87,1,2,1.9,2.89,2.9a6,6,0,0,1,1.79,3.55c.12,2.27-2.35,3.05-4.24,3.38a13.83,13.83,0,0,1-6.17-.31,5.67,5.67,0,0,1-4.16-4.52c-.1-.63-.06-1.28-.14-1.91a9,9,0,0,0-1.76-4,11.88,11.88,0,0,1-1.36-2.16c-.59-1.4-.11-3,.26-4.39.33-1.21.7-2.57,1.13-2.46,0,.63,0,.69.44,1.12s.6,1.34,1.2,1.82a8.27,8.27,0,0,1-.42-1.62.89.89,0,0,1,.13-.64,1.69,1.69,0,0,1,.69-.37,14.52,14.52,0,0,1,2.76-.63,8.37,8.37,0,0,1,2.69,0,1.23,1.23,0,0,1,.68.39,1.36,1.36,0,0,1,.24.78C198.57,422.93,198.54,423.87,198.56,424.47Z" style="fill: rgb(69, 90, 100); transform-origin: 197.509px 431.486px;" id="eltntca140hd" class="animable"></path><path d="M201,430.41c-.84-.63-2.74-.64-3.77-.53a6.31,6.31,0,0,0-2.95,1,.67.67,0,0,1-.86-.07h0a.64.64,0,0,1,.06-1,6.45,6.45,0,0,1,3.31-1.23c2.55-.17,3.3.26,3.3.26S201.23,429.66,201,430.41Z" style="fill: rgb(245, 245, 245); transform-origin: 197.119px 429.772px;" id="eldcnroble65" class="animable"></path><path d="M202.92,432.74c-1.06-.63-3.15-.54-4.18-.43a5.94,5.94,0,0,0-2.87,1.09.67.67,0,0,1-.87-.07h0a.63.63,0,0,1,.07-1,6.61,6.61,0,0,1,3.38-1.33c2.55-.18,3.22.34,3.22.34A2.13,2.13,0,0,1,202.92,432.74Z" style="fill: rgb(245, 245, 245); transform-origin: 198.853px 432.245px;" id="el2e9dm1ckfec" class="animable"></path><path d="M195.75,426.21a6.36,6.36,0,0,1,3.2.27c.45.25.75,1,.46,1.14a6,6,0,0,0-2.84-.39,8.52,8.52,0,0,0-2.76.76c-.22.1-.47.23-.7.36a.6.6,0,0,1-.84-.26h0a.57.57,0,0,1,.22-.73A8.26,8.26,0,0,1,195.75,426.21Z" style="fill: rgb(245, 245, 245); transform-origin: 195.87px 427.274px;" id="elgidro68tue" class="animable"></path><path d="M239.68,427.52a2.75,2.75,0,0,1-.12,2c-.28.6-3.37,2.34-7.54,2.06a17.25,17.25,0,0,1-8.61-3,10,10,0,0,0-5.31-1.36c-2.06-.12-4.77-1.15-5.23-2.11a4.59,4.59,0,0,1,.07-2.63Z" style="fill: rgb(55, 71, 79); transform-origin: 226.262px 427.045px;" id="elnef5qq6bkk" class="animable"></path><path d="M222.86,414.52l.33-.07a1.28,1.28,0,0,1,.55,0,1,1,0,0,1,.51.35,9.9,9.9,0,0,1,1.07,1.67c.87,1.42,2.71,2.6,4.71,3.68,1.36.73,2.69,1.3,4.1,1.93s3.34,1,4.46,1.8a3,3,0,0,1,0,5,14.71,14.71,0,0,1-10.27.71c-2.42-.68-5.1-3.27-8.27-3.51-2-.16-5.83-.73-7.13-2.26-.48-.68.16-2.83.69-4.69.57-2,1.12-5.2,1.79-5a.94.94,0,0,0,.35.76,10.77,10.77,0,0,0,.86.65,5.32,5.32,0,0,1,1.11,1.61,1.28,1.28,0,0,0,.57.62c.34.13.6-.09.9-.23a1.71,1.71,0,0,1,1.2-.08,8,8,0,0,0-.21-1.19.74.74,0,0,1,0-.39.66.66,0,0,1,.26-.29A6.44,6.44,0,0,1,222.86,414.52Z" style="fill: rgb(69, 90, 100); transform-origin: 226.341px 422.159px;" id="el5coy20wgwdo" class="animable"></path><path d="M228.14,419a1.88,1.88,0,0,0-1.48-1,5.44,5.44,0,0,0-3.55,1.34.75.75,0,0,0,.11,1.24h0a.74.74,0,0,0,.86-.09A5.73,5.73,0,0,1,228.14,419Z" style="fill: rgb(245, 245, 245); transform-origin: 225.486px 419.339px;" id="elqobf65ysyo" class="animable"></path><path d="M231,420.61a2.15,2.15,0,0,0-1.77-.9,6.66,6.66,0,0,0-3.88,1.45.74.74,0,0,0,.11,1.2h0a.7.7,0,0,0,.82-.1A5.81,5.81,0,0,1,231,420.61Z" style="fill: rgb(245, 245, 245); transform-origin: 228.046px 421.079px;" id="el28pypi23fx4" class="animable"></path><path d="M234.13,422.05a2.4,2.4,0,0,0-1.83-.82,6.41,6.41,0,0,0-3.72,1.47.74.74,0,0,0,.1,1.2h0a.71.71,0,0,0,.83-.1A5.5,5.5,0,0,1,234.13,422.05Z" style="fill: rgb(245, 245, 245); transform-origin: 231.224px 422.61px;" id="elcpgv9xw1ze" class="animable"></path><path d="M202.34,285.13a49.22,49.22,0,0,0-7.71,1.73c-1.78.63-2.16,2.65-2.54,4.32-1.21,5.34-1.42,16.54-1.42,16.54l-1,29.2c4.51,3.29,24.6,6.25,34.11-.69,0,0-1.73-35.47-1.73-40.31s-2.69-10.64-10.11-11.07Z" style="fill: rgb(250, 250, 250); transform-origin: 206.725px 312.654px;" id="elnsw1qky86m" class="animable"></path><path d="M195.83,261.33a3.21,3.21,0,0,1,1.75-.93l-2.28-1.23a1.84,1.84,0,0,1,2.52-.83,2,2,0,0,1,.84,2.51s10-6.07,13.65-6.07c4.95,0,9.78,1.69,8.11,8.77-1.13,4.83-3.16,9.18-8.11,9.18-3.9,0-11.69,6.81-11.69,6.81a3.08,3.08,0,0,1-1.79-1.45c-.58-1.12-2-7.95-2-7.95h0C195.3,266.39,194.63,262.55,195.83,261.33Z" style="fill: rgb(38, 50, 56); transform-origin: 207.985px 267.16px;" id="elo1kp3sygdlf" class="animable"></path><path d="M200.35,270.45c-.55.33-1.33-.72-2-1.43a2.38,2.38,0,0,0-4,.65c-1.12,2.37,1,5.5,2.72,6,3,.94,3.45-1,3.45-1l.22,11.15h0a8.43,8.43,0,0,0,7.93,3.07c2-.35,3.75-1.47,1.84-3.68V282a19.2,19.2,0,0,0,4,.21c2.21-.34,3.6-2.08,4.27-4.47,1.07-3.84,1.48-6.94.57-14.48-1-8.27-10.62-8.36-15.81-5.09S200.35,270.45,200.35,270.45Z" style="fill: rgb(255, 168, 167); transform-origin: 206.945px 272.579px;" id="elaf98kwppo4f" class="animable"></path><path d="M219.22,259.54c-1.81,1.47-3,2.26-6.5,2.39a15.73,15.73,0,0,1-7-1.37,4.44,4.44,0,0,1-1,2.27,6.88,6.88,0,0,1-2.46,1.61c-.19,1.49-.18,3.4-.28,4.9,0,.5,0,3.13-1.22,2.38a6.15,6.15,0,0,1-1.05-1.17,15.37,15.37,0,0,0-1.38-1.53c-.94-.86.28-8.67.28-8.67a3.8,3.8,0,0,1,.65-4.22c1.3-1.42,3.11-3.17,9-2.47,4.2.49,8.77,1.8,12.46,0C221.24,255.77,220.52,258.49,219.22,259.54Z" style="fill: rgb(38, 50, 56); transform-origin: 209.432px 262.677px;" id="eld3d1yaidoxs" class="animable"></path><path d="M210.5,282s-4.93-1-6.65-1.91a5.68,5.68,0,0,1-2.38-2.35,7.75,7.75,0,0,0,1.35,2.78c1.26,1.61,7.68,2.79,7.68,2.79Z" style="fill: rgb(242, 143, 143); transform-origin: 205.985px 280.525px;" id="el15l0ep934et" class="animable"></path><path d="M208.52,266.27l-2.33.9a1.31,1.31,0,0,1,.74-1.66A1.23,1.23,0,0,1,208.52,266.27Z" style="fill: rgb(38, 50, 56); transform-origin: 207.316px 266.302px;" id="elw22ih9efiw" class="animable"></path><path d="M209.84,275.66l2.68,1a1.4,1.4,0,0,1-1.82.89A1.5,1.5,0,0,1,209.84,275.66Z" style="fill: rgb(242, 143, 143); transform-origin: 211.138px 276.648px;" id="elj15klf5si5h" class="animable"></path><path d="M218.79,266.73l-2.3-1a1.2,1.2,0,0,1,1.61-.67A1.31,1.31,0,0,1,218.79,266.73Z" style="fill: rgb(38, 50, 56); transform-origin: 217.684px 265.843px;" id="el7hng7yj9dou" class="animable"></path><polygon points="213.16 268.47 213.51 274.91 216.87 273.76 213.16 268.47" style="fill: rgb(242, 143, 143); transform-origin: 215.015px 271.69px;" id="elgvrk599p0oq" class="animable"></polygon><path d="M210,269a.91.91,0,1,1-1-.9A.93.93,0,0,1,210,269Z" style="fill: rgb(38, 50, 56); transform-origin: 209.09px 269.006px;" id="el9tzo8tyki38" class="animable"></path><path d="M217.77,269a.91.91,0,1,1-1-.9A.92.92,0,0,1,217.77,269Z" style="fill: rgb(38, 50, 56); transform-origin: 216.86px 269.006px;" id="elwz1kwjvqxfr" class="animable"></path><path d="M226.55,325.27a3.72,3.72,0,0,0,0-2.4,1.08,1.08,0,0,0-.51-.63,1.26,1.26,0,0,0-1,.11c-1.18.51-2.26,1.22-3.43,1.72a5.45,5.45,0,0,1-3.73.43,1,1,0,0,1,.46-.57l1.49-1.15c.64-.49,1.35-1.12,1.31-1.93a.62.62,0,0,0-.29-.54.87.87,0,0,0-.53,0,47.28,47.28,0,0,0-5.2,1.47,36.41,36.41,0,0,1-4.76,1.59c-2.8.55-4.74.45-8.76-.1s-8.08-2.07-11.89-3.15c1.25-6.76,4.83-20.61,5.46-25.7.78-6.31-1.74-6.66-1.74-6.66-4.58.56-7.47,1.05-11.35,14.48-1.63,5.64-4.07,17.22-4.16,22.35,0,2.24,3.54,4,10.62,5.34,4.14.78,7.27,1,13.06,1.64,4.69.51,7.5.53,9.54.58a28.83,28.83,0,0,0,4.64-.14,25,25,0,0,0,5.34-1.21,7.94,7.94,0,0,0,4.35-3.36A8.1,8.1,0,0,0,226.55,325.27Z" style="fill: rgb(255, 168, 167); transform-origin: 202.334px 309.973px;" id="elspsm7dyjic" class="animable"></path><path d="M194.63,286.86s-3.95-.26-6.14,1.38c-5.24,3.95-6.4,12.61-8.72,21.38,0,0,3.54,5.26,11.5,4.76l3.94-16.47S198,290.89,194.63,286.86Z" style="fill: #00A5FF; transform-origin: 188.032px 300.629px;" id="eltozuz1x57im" class="animable"></path><g id="el23nk77l98k6"><path d="M194.63,286.86s-3.95-.26-6.14,1.38c-5.24,3.95-6.4,12.61-8.72,21.38,0,0,3.54,5.26,11.5,4.76l3.94-16.47S198,290.89,194.63,286.86Z" style="opacity: 0.3; transform-origin: 188.032px 300.629px;" class="animable" id="eldf8fg7574go"></path></g></g><g id="freepik--Flags--inject-132" class="animable" style="transform-origin: 359.316px 224.747px;"><path d="M266.71,286.51s3.16,15.05,3.23,20.28c.07,4.92,8-13.32,8.27-24.61C278.21,282.18,269.53,285.57,266.71,286.51Z" style="fill: #00A5FF; transform-origin: 272.46px 294.897px;" id="el3ulmjv8n67e" class="animable"></path><path d="M286.14,279.14s4.48,16.28,4,21.17,8-15,8.2-26.34C298.3,274,290.11,277.33,286.14,279.14Z" style="fill: rgb(69, 90, 100); transform-origin: 292.24px 287.52px;" id="elarl60naocgf" class="animable"></path><path d="M326.74,260.69s3.81,13.9,3.3,18.79,7.51-13.68,7.68-25C337.72,254.51,329.77,259,326.74,260.69Z" style="fill: rgb(69, 90, 100); transform-origin: 332.23px 267.382px;" id="eltex9yqr2cnr" class="animable"></path><path d="M307.69,269.76s2.92,14.73,2.17,19.59,8.17-13.89,8.9-25.16C318.76,264.19,311.61,268,307.69,269.76Z" style="fill: #00A5FF; transform-origin: 313.225px 277.164px;" id="elcldbnnqr6zm" class="animable"></path><path d="M346.24,249.93s3.56,13.71,3.06,18.61,7.42-13.51,7.55-24.81C356.85,243.73,350.78,247.47,346.24,249.93Z" style="fill: #00A5FF; transform-origin: 351.545px 256.541px;" id="elwd78hrwyao" class="animable"></path><path d="M252.11,290.93c.48-.16.95-.27,1.43-.41a8.3,8.3,0,0,1-.8,1.32l-1.37.45-.31-.52A2.32,2.32,0,0,1,252.11,290.93Z" style="fill: rgb(69, 90, 100); transform-origin: 252.3px 291.405px;" id="el32rrnf7rzno" class="animable"></path><path d="M467.57,143.29c-2.39,3.78-17.62,27.06-48.93,55.21-30.31,27.26-82.1,64.7-158.64,90.91a7,7,0,0,0-.1-1c76.23-26.15,127.82-63.44,158-90.6,34-30.55,49-55.21,49.13-55.45l.32-.48.06.39S467.59,143.3,467.57,143.29Z" style="fill: rgb(69, 90, 100); transform-origin: 363.736px 215.645px;" id="elpzmgab4mnd" class="animable"></path></g><path id="freepik--tie--inject-132" d="M252.73,291.86l.37-.54A1,1,0,0,0,252,291c-2.66,1.81-3.07,5.12-2.6,8.11s1.83,6.06,1.95,9.21c.24,6.44-4.16,11.9-4.53,18.25-.25,4.51,1,9,1.87,13.35,0,.16.17.07.15-.05-.47-4-1.25-7.91-1.12-11.92a29,29,0,0,1,2.41-9.53,28.91,28.91,0,0,0,2.4-8.62c.19-3.17-.89-6.09-1.61-9.12a14.68,14.68,0,0,1-.48-4.89A5.44,5.44,0,0,1,252.73,291.86Z" style="fill: rgb(69, 90, 100); transform-origin: 249.944px 315.477px;" class="animable"></path></g><defs>     <filter id="active" height="200%">         <feMorphology in="SourceAlpha" result="DILATED" operator="dilate" radius="2"></feMorphology>                <feFlood flood-color="#32DFEC" flood-opacity="1" result="PINK"></feFlood>        <feComposite in="PINK" in2="DILATED" operator="in" result="OUTLINE"></feComposite>        <feMerge>            <feMergeNode in="OUTLINE"></feMergeNode>            <feMergeNode in="SourceGraphic"></feMergeNode>        </feMerge>    </filter>    <filter id="hover" height="200%">        <feMorphology in="SourceAlpha" result="DILATED" operator="dilate" radius="2"></feMorphology>                <feFlood flood-color="#ff0000" flood-opacity="0.5" result="PINK"></feFlood>        <feComposite in="PINK" in2="DILATED" operator="in" result="OUTLINE"></feComposite>        <feMerge>            <feMergeNode in="OUTLINE"></feMergeNode>            <feMergeNode in="SourceGraphic"></feMergeNode>        </feMerge>            <feColorMatrix type="matrix" values="0   0   0   0   0                0   1   0   0   0                0   0   0   0   0                0   0   0   1   0 "></feColorMatrix>    </filter></defs></svg>