<svg width="398" height="406" viewBox="0 0 398 406" fill="none" xmlns="http://www.w3.org/2000/svg">
<path d="M386.499 204.354C364.952 254.725 314.888 289.988 256.6 289.833C179.476 289.628 116.372 226.523 116.167 149.4C116.012 91.1119 151.275 41.048 201.646 19.5009C207.488 17.0019 205.676 8.21095 199.322 8.19995C199.215 8.19995 199.108 8.19995 199 8.19995C89.2062 8.19995 0.200195 97.206 0.200195 207C0.200195 290.791 52.0452 362.462 125.402 391.716C129.016 393.157 133.225 391.962 135.303 388.673C138.406 383.763 144.013 380.597 150.336 380.982C157.775 381.435 164.097 387.005 165.548 394.314C165.683 394.993 165.773 395.664 165.822 396.327C166.115 400.313 169.027 403.585 172.99 404.104C181.502 405.219 190.182 405.8 198.999 405.8C308.793 405.8 397.799 316.794 397.799 207C397.799 206.893 397.799 206.786 397.799 206.678C397.789 200.324 388.998 198.512 386.499 204.354V204.354Z" fill="#8FD8F0"/>
<path d="M397.801 206.678C397.791 200.324 388.999 198.512 386.5 204.354C382.979 212.586 378.683 220.405 373.727 227.741C363.748 323.998 285.087 399.846 187.596 405.455C191.372 405.67 195.171 405.8 199 405.8C308.794 405.8 397.8 316.794 397.8 207C397.801 206.893 397.801 206.786 397.801 206.678V206.678Z" fill="#75D8F7"/>
<path d="M178.646 19.5009C128.275 41.048 93.0125 91.1109 93.1675 149.4C93.3725 226.524 156.476 289.628 233.6 289.833C237.592 289.844 241.542 289.673 245.451 289.358C173.487 283.45 116.363 222.772 116.168 149.4C116.013 91.1119 151.275 41.048 201.646 19.5009C207.488 17.0019 205.676 8.21095 199.322 8.19995C199.215 8.19995 199.108 8.19995 199 8.19995C192.437 8.19995 185.952 8.52695 179.552 9.14795C183.085 11.4829 183.32 17.5009 178.646 19.5009V19.5009Z" fill="#60CEEF"/>
<path d="M58.1832 273.267C67.3329 273.267 74.7502 265.85 74.7502 256.7C74.7502 247.55 67.3329 240.133 58.1832 240.133C49.0335 240.133 41.6162 247.55 41.6162 256.7C41.6162 265.85 49.0335 273.267 58.1832 273.267Z" fill="#5FCEEF"/>
<path d="M81.1867 205.728C89.641 202.223 93.6538 192.529 90.1495 184.075C86.6451 175.62 76.9507 171.608 68.4964 175.112C60.0421 178.616 56.0293 188.311 59.5336 196.765C63.038 205.219 72.7324 209.232 81.1867 205.728Z" fill="#60CEEF"/>
<path d="M228.5 73L231.306 80.6008H240.388L233.041 85.2984L235.847 92.8992L228.5 88.2016L221.153 92.8992L223.959 85.2984L216.612 80.6008H225.694L228.5 73Z" fill="white"/>
<path d="M21.5 49L23.6329 54.8734L30.535 54.8734L24.9511 58.5033L27.084 64.3766L21.5 60.7467L15.916 64.3766L18.0489 58.5033L12.465 54.8734L19.3671 54.8734L21.5 49Z" fill="white"/>
<path d="M105.5 0L107.633 5.87336L114.535 5.87336L108.951 9.50329L111.084 15.3766L105.5 11.7467L99.916 15.3766L102.049 9.50329L96.465 5.87336L103.367 5.87336L105.5 0Z" fill="white"/>
<path d="M347.5 111L349.633 117.564H356.535L350.951 121.621L353.084 128.186L347.5 124.129L341.916 128.186L344.049 121.621L338.465 117.564H345.367L347.5 111Z" fill="white"/>
<path d="M328.5 177L330.633 183.564H337.535L331.951 187.621L334.084 194.186L328.5 190.129L322.916 194.186L325.049 187.621L319.465 183.564H326.367L328.5 177Z" fill="white"/>
<path d="M159.5 130L161.633 136.564H168.535L162.951 140.621L165.084 147.186L159.5 143.129L153.916 147.186L156.049 140.621L150.465 136.564H157.367L159.5 130Z" fill="white"/>
<path d="M347.5 368L349.633 374.219H356.535L350.951 378.062L353.084 384.281L347.5 380.438L341.916 384.281L344.049 378.062L338.465 374.219H345.367L347.5 368Z" fill="white"/>
<path d="M245.5 171L249.878 184.129H264.046L252.584 192.243L256.962 205.371L245.5 197.257L234.038 205.371L238.416 192.243L226.954 184.129H241.122L245.5 171Z" fill="white"/>
</svg>
